<svg id="svg5379" xmlns:rdf="http://www.w3.org/1999/02/22-rdf-syntax-ns#" xmlns="http://www.w3.org/2000/svg" height="123" viewBox="0 0 140 123" width="140" version="1.1" xmlns:cc="http://creativecommons.org/ns#" xmlns:dc="http://purl.org/dc/elements/1.1/">
 <g id="g5389" transform="translate(2.128 -2.2699)">
  <path id="path5393" d="m35.75 109.34c0.784-0.32 1.25-2.53 1.25-5.92 0-3.662-0.406-5.425-1.25-5.435-0.833-0.011-0.75-0.339 0.25-0.985 2.4762-1.6003 2.6995-1.2503 3.279 5.1402 0.31513 3.4753 1.1349 6.5067 1.8889 6.9847 0.84609 0.53636-0.12728 0.82124-2.6679 0.78082-2.2-0.035-3.4375-0.29061-2.75-0.56802zm9.5 0c-1.742-0.71-1.569-3.34 0.219-3.34 0.93593 0 1.2457 0.58085 0.85409 1.6014-0.4523 1.1787-0.11405 1.506 1.2814 1.2398 2.8935-0.55193 3.0467-4.6491 0.21627-5.784-1.732-0.7-1.876-0.95-0.571-1 2.214-0.08 2.491-5.06 0.281-5.06-0.89459 0-1.2436 0.58629-0.89301 1.5 0.61141 1.5933-1.1414 2.1131-2.0683 0.61331-0.96894-1.5678 2.295-3.364 4.917-2.7059 2.6143 0.65614 3.3676 3.338 1.4706 5.235-0.72318 0.72318-0.57006 1.4344 0.5 2.3224 1.9454 1.6145 1.9397 2.495-0.02905 4.4637-1.557 1.557-3.767 1.8822-6.1786 0.90915zm56.75 0.0443c0-0.3399 1.3754-2.1845 3.0566-4.0992 3.3303-3.793 3.6213-7.5378 0.62997-8.1081-1.2673-0.24162-1.7191 0.17585-1.5 1.386 0.17241 0.95249-0.24902 1.9285-0.93652 2.1689-1.7289 0.60452-1.5745-2.2154 0.20196-3.6897 1.9742-1.6384 4.5164-0.98149 6.2349 1.6112 1.3047 1.9684 1.1574 2.4568-1.7341 5.75-2.8403 3.2349-2.9555 3.5989-1.1396 3.5989 1.1112 0 2.2472-0.5625 2.5246-1.25 0.27741-0.6875 0.53991-0.2375 0.58333 1 0.0692 1.9715-0.41618 2.25-3.921 2.25-2.2 0-4-0.27809-4-0.61798zm11.25-0.0443c-1.74-0.71-1.57-3.34 0.22-3.34 0.93593 0 1.2457 0.58085 0.85409 1.6014-0.45231 1.1787-0.11405 1.506 1.2814 1.2398 2.8935-0.55193 3.0467-4.6491 0.21627-5.784-1.7309-0.69405-1.8758-0.94652-0.57036-0.9938 2.2145-0.0802 2.4914-5.0634 0.28138-5.0634-0.89459 0-1.2436 0.58629-0.89301 1.5 0.61141 1.5933-1.1414 2.1131-2.0683 0.61331-0.96895-1.5678 2.295-3.364 4.917-2.7059 2.6143 0.65614 3.3676 3.338 1.4706 5.235-0.72318 0.72318-0.57006 1.4344 0.5 2.3224 1.9454 1.6145 1.9397 2.495-0.0291 4.4637-1.557 1.557-3.767 1.8822-6.1786 0.90915zm-94.135-4.6224c-1.3946-1.3946-1.4404-5.2395-0.09244-7.7582 1.5164-2.8334 4.7039-4.1761 8.1283-3.424 2.8665 0.62959 2.9983 0.86776 2.388 4.3166-0.355 2.002-0.875 4.545-1.155 5.645-0.43349 1.7021-0.2054 1.6276 1.5311-0.5 2.0512-2.5132 2.869-1.7885 1.114 0.98721-1.1424 1.8068-10.277 2.3651-11.914 0.72815zm5.131-0.97c2.1088-1.6189 3.3624-8.256 1.7479-9.2538-1.8732-1.1577-4.0969 1.8529-4.7022 6.3662-0.57706 4.3023 0.1658 5.0284 2.9543 2.8876zm62.869 0.96536c-1.3946-1.3946-1.4404-5.2395-0.09244-7.7582 1.5164-2.8334 4.7039-4.1761 8.1283-3.424 2.8665 0.62959 2.9983 0.86776 2.388 4.3166-0.355 2.002-0.875 4.545-1.155 5.645-0.43349 1.7021-0.2054 1.6276 1.5311-0.5 2.0512-2.5132 2.869-1.7885 1.114 0.98721-1.1424 1.8068-10.277 2.3651-11.914 0.72815zm5.131-0.97c2.1088-1.6189 3.3624-8.256 1.7479-9.2538-1.8732-1.1577-4.0969 1.8529-4.7022 6.3662-0.57706 4.3023 0.1658 5.0284 2.9543 2.8876zm-56.496-35.412c1.7189-0.69361 1.7189-11.332 0-11.353-0.833-0.011-0.75-0.339 0.25-0.985 2.4762-1.6003 2.6995-1.2503 3.279 5.1402 0.31513 3.4753 1.1349 6.5067 1.8889 6.9847 0.84609 0.53636-0.12728 0.82124-2.6679 0.78082-2.2-0.035-3.4375-0.29061-2.75-0.56802zm8.25 0.0443c0-0.33989 1.3754-2.1845 3.0566-4.0992 3.3303-3.793 3.6213-7.5378 0.62997-8.1081-1.2673-0.24162-1.7191 0.17585-1.5 1.386 0.17242 0.95249-0.24902 1.9285-0.93652 2.1689-1.7289 0.60452-1.5745-2.2154 0.20196-3.6897 1.9742-1.6384 4.5164-0.98149 6.2349 1.6112 1.3047 1.9684 1.1574 2.4568-1.7341 5.75-2.841 3.235-2.956 3.599-1.14 3.599 1.1111 0 2.2472-0.5625 2.5246-1.25 0.27741-0.6875 0.53991-0.2375 0.58333 1 0.069 1.971-0.416 2.25-3.921 2.25-2.2 0-4-0.278-4-0.618zm58 0c0-0.33989 1.3754-2.1845 3.0566-4.0992 3.3303-3.793 3.6213-7.5378 0.62997-8.1081-1.2673-0.24162-1.7191 0.17585-1.5 1.386 0.17241 0.95249-0.24902 1.9285-0.93652 2.1689-1.7289 0.60452-1.5745-2.2154 0.20196-3.6897 1.9742-1.6384 4.5164-0.98149 6.2349 1.6112 1.3047 1.9684 1.1574 2.4568-1.7341 5.75-2.84 3.235-2.95 3.599-1.14 3.599 1.1112 0 2.2472-0.5625 2.5246-1.25 0.27741-0.6875 0.53991-0.2375 0.58333 1 0.0692 1.9715-0.41618 2.25-3.921 2.25-2.2 0-4-0.27809-4-0.61798zm10 0c0-0.33989 1.3754-2.1845 3.0566-4.0992 3.3303-3.793 3.6213-7.5378 0.62997-8.1081-1.2673-0.24162-1.7191 0.17585-1.5 1.386 0.17241 0.95249-0.24902 1.9285-0.93652 2.1689-1.7289 0.60452-1.5745-2.2154 0.20196-3.6897 1.9742-1.6384 4.5164-0.98149 6.2349 1.6112 1.3047 1.9684 1.1574 2.4568-1.7341 5.75-2.84 3.235-2.95 3.599-1.14 3.599 1.1112 0 2.2472-0.5625 2.5246-1.25 0.27741-0.6875 0.53991-0.2375 0.58333 1 0.0692 1.9715-0.41618 2.25-3.921 2.25-2.2 0-4-0.27809-4-0.61798zm-92.885-5.6667c-1.3946-1.3946-1.4404-5.2395-0.09244-7.7582 1.5164-2.8334 4.7039-4.1761 8.1283-3.424 2.8665 0.62959 2.9983 0.86776 2.388 4.3166-0.355 2.007-0.875 4.55-1.155 5.65-0.43349 1.7021-0.2054 1.6276 1.5311-0.5 2.0512-2.5132 2.869-1.7885 1.114 0.98721-1.1424 1.8068-10.277 2.3651-11.914 0.72814zm5.131-0.965c2.1088-1.6189 3.3624-8.256 1.7479-9.2538-1.8732-1.1577-4.0969 1.8529-4.7022 6.3662-0.57706 4.3023 0.1658 5.0284 2.9543 2.8876zm62.869 0.96536c-1.3946-1.3946-1.4404-5.2395-0.09244-7.7582 1.5164-2.8334 4.7039-4.1761 8.1283-3.424 2.8665 0.62959 2.9983 0.86776 2.388 4.3166-0.355 2.007-0.875 4.55-1.155 5.65-0.43349 1.7021-0.2054 1.6276 1.5311-0.5 2.0512-2.5132 2.869-1.7885 1.114 0.98721-1.1424 1.8068-10.277 2.3651-11.914 0.72814zm5.131-0.965c2.1088-1.6189 3.3624-8.256 1.7479-9.2538-1.8732-1.1577-4.0969 1.8529-4.7022 6.3662-0.57706 4.3023 0.1658 5.0284 2.9543 2.8876zm-56.496-34.412c0.784-0.317 1.25-2.524 1.25-5.921 0-3.659-0.406-5.422-1.25-5.432-0.833-0.011-0.75-0.339 0.25-0.985 2.4762-1.6003 2.6995-1.2503 3.279 5.1402 0.31513 3.4753 1.1349 6.5067 1.8889 6.9847 0.84609 0.53636-0.12728 0.82124-2.6679 0.78082-2.2-0.035-3.4375-0.29061-2.75-0.56802zm10 0c0.784-0.317 1.25-2.524 1.25-5.921 0-3.659-0.406-5.422-1.25-5.432-0.833-0.011-0.75-0.339 0.25-0.985 2.4762-1.6003 2.6995-1.2503 3.279 5.1402 0.31513 3.4753 1.1349 6.5067 1.8889 6.9847 0.84609 0.53636-0.12728 0.82124-2.6679 0.78082-2.2-0.035-3.4375-0.29061-2.75-0.56802zm56.25 0.0443c0-0.33989 1.3754-2.1845 3.0566-4.0992 3.3303-3.793 3.6213-7.5378 0.62997-8.1081-1.2673-0.24162-1.7191 0.17585-1.5 1.386 0.17241 0.95249-0.24902 1.9285-0.93652 2.1689-1.7289 0.60452-1.5745-2.2154 0.20196-3.6897 1.9742-1.6384 4.5164-0.98149 6.2349 1.6112 1.3047 1.9684 1.1574 2.4568-1.7341 5.75-2.84 3.235-2.95 3.599-1.14 3.599 1.1112 0 2.2472-0.5625 2.5246-1.25 0.27741-0.6875 0.53991-0.2375 0.58333 1 0.0692 1.9715-0.41618 2.25-3.921 2.25-2.2 0-4-0.27809-4-0.61798zm11.75-0.0443c0.78408-0.31638 1.25-2.5234 1.25-5.9211 0-3.6585-0.40573-5.4216-1.25-5.432-0.83-0.011-0.75-0.339 0.25-0.985 2.4762-1.6003 2.6995-1.2503 3.279 5.1402 0.31513 3.4753 1.1349 6.5067 1.8889 6.9847 0.84609 0.53636-0.12728 0.82124-2.6679 0.78082-2.2-0.035-3.4375-0.29061-2.75-0.56802zm-94.635-5.6224c-1.3946-1.3946-1.4404-5.2395-0.09244-7.7582 1.5164-2.8334 4.7039-4.1761 8.1283-3.424 2.8665 0.62959 2.9983 0.86776 2.388 4.3166-0.355 2.006-0.875 4.549-1.155 5.649-0.43349 1.7021-0.2054 1.6276 1.5311-0.5 2.0512-2.5132 2.869-1.7885 1.114 0.98721-1.1424 1.8068-10.277 2.3651-11.914 0.72814zm5.131-0.966c2.1088-1.6189 3.3624-8.256 1.7479-9.2538-1.8732-1.1577-4.0969 1.8529-4.7022 6.3662-0.57706 4.3023 0.1658 5.0284 2.9543 2.8876zm62.869 0.96536c-1.3946-1.3946-1.4404-5.2395-0.09244-7.7582 1.5164-2.8334 4.7039-4.1761 8.1283-3.424 2.8665 0.62959 2.9983 0.86776 2.388 4.3166-0.355 2.007-0.875 4.55-1.155 5.65-0.43349 1.7021-0.2054 1.6276 1.5311-0.5 2.0512-2.5132 2.869-1.7885 1.114 0.98721-1.1424 1.8068-10.277 2.3651-11.914 0.72814zm5.131-0.965c2.1088-1.6189 3.3624-8.256 1.7479-9.2538-1.8732-1.1577-4.0969 1.8529-4.7022 6.3662-0.57706 4.3023 0.1658 5.0284 2.9543 2.8876z"/>
  <path id="path5391" d="m36.317 109.3c1.5347-0.39715 1.7797-1.3886 1.5762-6.3768-0.13258-3.2486 0.06217-6.2098 0.43279-6.5804 0.371-0.373 0.674 2.291 0.674 5.917 0 5.4385 0.30652 6.6734 1.75 7.0507 0.9625 0.25153-0.05 0.45733-2.25 0.45733s-3.1823-0.21162-2.1828-0.47027zm66.114-0.18724c0.94-1.52 7.57-1.88 7.57-0.41 0 0.85221-1.3965 1.2992-4.059 1.2992-2.2325 0-3.8116-0.40028-3.5093-0.88951zm-57.849-0.97628c-0.43077-0.697-0.51316-1.5373-0.18308-1.8674 0.89496-0.89496 1.8708 0.4213 1.3874 1.8714-0.33872 1.0162-0.57427 1.0154-1.2043-0.004zm5.419-2.13c0-1.824 0.415-2.8616 1-2.5 0.55 0.33992 1 1.4649 1 2.5s-0.45 2.1601-1 2.5c-0.585 0.36155-1-0.67595-1-2.5zm62.583 2.1342c-0.43077-0.697-0.51316-1.5373-0.18309-1.8674 0.89497-0.89496 1.8708 0.4213 1.3874 1.8714-0.33872 1.0162-0.57427 1.0154-1.2043-0.004zm5.42-2.13c0-1.824 0.415-2.8616 1-2.5 0.55 0.33992 1 1.4649 1 2.5s-0.45 2.1601-1 2.5c-0.585 0.36155-1-0.67595-1-2.5zm-98.429-1.5714c-2.1451-2.1451-1.9719-4.6497 0.54258-7.8464 2.7451-3.4898 3.296-2.8078 1.3991 1.7321-1.8536 4.4363-1.8559 4.2 0.0583 6.1142 0.86428 0.86429 1.1214 1.5714 0.57143 1.5714-0.55 0-1.7071-0.70714-2.5714-1.5714zm7.4763 0.62116c-0.79874-0.50477-1.7922-0.70764-2.2078-0.45083-0.41554 0.25682-0.1023-0.78537 0.69609-2.316s1.4544-4.0204 1.4578-5.5329c0.0042-1.8576 0.5281-2.75 1.6146-2.75 1.2354 0 1.4561 0.60681 0.95167 2.6167-1.566 6.243-1.762 8.383-0.767 8.383 0.57292 0 1.2704-0.46125 1.55-1.025 0.27958-0.56375 0.40146-0.47937 0.27083 0.1875-0.3201 1.6342-1.7999 2.0025-3.5648 0.88723zm60.524-0.62116c-2.1451-2.1451-1.9719-4.6497 0.54258-7.8464 2.7451-3.4898 3.296-2.8078 1.3991 1.7321-1.8536 4.4363-1.8559 4.2 0.0583 6.1142 0.86428 0.86429 1.1214 1.5714 0.57143 1.5714-0.55 0-1.7071-0.70714-2.5714-1.5714zm7.4763 0.62116c-0.79874-0.50477-1.7922-0.70764-2.2078-0.45083-0.41554 0.25682-0.1023-0.78537 0.69609-2.316s1.4544-4.0204 1.4578-5.5329c0.0042-1.8576 0.5281-2.75 1.6146-2.75 1.2354 0 1.4561 0.60681 0.95167 2.6167-1.566 6.243-1.762 8.383-0.767 8.383 0.57292 0 1.2704-0.46125 1.55-1.025 0.27958-0.56375 0.40146-0.47937 0.27083 0.1875-0.3201 1.6342-1.7999 2.0025-3.5648 0.88723zm11.209-0.62847c2.2344-2.665 2.2311-6.0375-0.007-7.3412-2.3033-1.3416-0.68203-1.3817 1.8157-0.04492 2.7197 1.4556 2.4045 4.2006-0.80859 7.0405-1.9907 1.7595-2.2649 1.8542-1 0.34557zm-58.01-2.5c0.9625-0.5606 1.75-1.9869 1.75-3.1696 0-1.6485 0.27454-1.8758 1.1764-0.97394 0.90183 0.90183 0.74897 1.6486-0.65499 3.2-1.0072 1.113-2.3241 2.01-2.9264 1.9932-0.60226-0.0167-0.30751-0.48908 0.65499-1.0497zm68 0c0.9625-0.5606 1.75-1.9869 1.75-3.1696 0-1.6485 0.27454-1.8758 1.1764-0.97394 0.90183 0.90183 0.74897 1.6486-0.65499 3.2-1.0072 1.113-2.3241 2.01-2.9264 1.9932-0.60225-0.0167-0.30751-0.48908 0.65499-1.0497zm-13.804-2.007c-0.36954-0.59792-0.26645-1.4926 0.22907-1.9881 0.53462-0.53461 0.96186-0.09257 1.0507 1.0871 0.16721 2.2198-0.27313 2.5298-1.2798 0.90096zm-57.371-1.496c0.04798-1.1649 0.28494-1.4019 0.60417-0.60417 0.28887 0.72188 0.25334 1.5844-0.07895 1.9167-0.33229 0.33229-0.56864-0.25833-0.52522-1.3125zm68 0c0.048-1.1649 0.28494-1.4019 0.60416-0.60417 0.28887 0.72188 0.25335 1.5844-0.0789 1.9167-0.3323 0.33229-0.56864-0.25833-0.52522-1.3125zm-76.763-30.119c1.5347-0.39715 1.7797-1.3886 1.5762-6.3768-0.13258-3.2486 0.06217-6.2098 0.43279-6.5804 0.371-0.371 0.674 2.293 0.674 5.919 0 5.4385 0.30652 6.6734 1.75 7.0507 0.9625 0.25153-0.05 0.45732-2.25 0.45732s-3.1823-0.21162-2.1828-0.47027zm8.1145-0.18724c0.94-1.522 7.568-1.881 7.568-0.41 0 0.852-1.396 1.299-4.059 1.299-2.2325 0-3.8116-0.40028-3.5093-0.88951zm58 0c0.94-1.522 7.57-1.881 7.57-0.41 0 0.852-1.4 1.299-4.06 1.299-2.2325 0-3.8116-0.40028-3.5093-0.88951zm10 0c0.94-1.522 7.57-1.881 7.57-0.41 0 0.852-1.4 1.299-4.06 1.299-2.2325 0-3.8116-0.40028-3.5093-0.88951zm-64.173-4.69c2.2344-2.665 2.2311-6.0375-0.0072-7.3412-2.3033-1.3416-0.68203-1.3817 1.8157-0.04491 2.7197 1.4556 2.4045 4.2006-0.80859 7.0405-1.9907 1.7595-2.2649 1.8543-1 0.34557zm58 0c2.2344-2.665 2.2311-6.0375-0.007-7.3412-2.3033-1.3416-0.68203-1.3817 1.8157-0.04491 2.7197 1.4556 2.4045 4.2006-0.80859 7.0405-1.9907 1.7595-2.2649 1.8543-1 0.34557zm10 0c2.2344-2.665 2.2311-6.0375-0.007-7.3412-2.3033-1.3416-0.68203-1.3817 1.8157-0.04491 2.7197 1.4556 2.4045 4.2006-0.80859 7.0405-1.9907 1.7595-2.2649 1.8543-1 0.34557zm-96.689-0.992c-2.1451-2.1451-1.9719-4.6497 0.54258-7.8464 2.7451-3.4898 3.296-2.8078 1.3991 1.7321-1.8536 4.4363-1.8559 4.2001 0.0583 6.1142 0.865 0.864 1.122 1.571 0.572 1.571s-1.7071-0.70714-2.5714-1.5714zm7.4763 0.62116c-0.79874-0.50477-1.7922-0.70764-2.2078-0.45082-0.41554 0.25682-0.1023-0.78538 0.69609-2.316s1.4544-4.0204 1.4578-5.5329c0.0042-1.8576 0.5281-2.75 1.6146-2.75 1.2354 0 1.4561 0.60681 0.95167 2.6167-1.566 6.245-1.762 8.383-0.767 8.383 0.57292 0 1.2704-0.46125 1.55-1.025 0.27958-0.56375 0.40146-0.47938 0.27083 0.1875-0.3201 1.6342-1.7999 2.0025-3.5648 0.88723zm60.524-0.62116c-2.1451-2.1451-1.9719-4.6497 0.54258-7.8464 2.7451-3.4898 3.296-2.8078 1.3991 1.7321-1.8536 4.4363-1.8559 4.2001 0.0583 6.1142 0.865 0.864 1.122 1.571 0.572 1.571s-1.7071-0.70714-2.5714-1.5714zm7.4763 0.62116c-0.79874-0.50477-1.7922-0.70764-2.2078-0.45082-0.41554 0.25682-0.1023-0.78538 0.69609-2.316s1.4544-4.0204 1.4578-5.5329c0.0042-1.8576 0.5281-2.75 1.6146-2.75 1.2354 0 1.4561 0.60681 0.95167 2.6167-1.566 6.245-1.762 8.383-0.767 8.383 0.57292 0 1.2704-0.46125 1.55-1.025 0.27958-0.56375 0.40146-0.47938 0.27083 0.1875-0.3201 1.6342-1.7999 2.0025-3.5648 0.88723zm-50.601-4.137c-0.36954-0.59792-0.26645-1.4926 0.22908-1.9881 0.53461-0.53461 0.96186-0.09257 1.0507 1.0871 0.16721 2.2198-0.27314 2.5298-1.2798 0.90096zm58 0c-0.36954-0.59792-0.26645-1.4926 0.22907-1.9881 0.53462-0.53461 0.96186-0.09257 1.0507 1.0871 0.16721 2.2198-0.27313 2.5298-1.2798 0.90096zm10 0c-0.36954-0.59792-0.26645-1.4926 0.22907-1.9881 0.53462-0.53461 0.96186-0.09257 1.0507 1.0871 0.16721 2.2198-0.27313 2.5298-1.2798 0.90096zm-76.133-31.615c1.5347-0.39715 1.7797-1.3886 1.5762-6.3768-0.13258-3.2486 0.06217-6.2098 0.43279-6.5804 0.371-0.371 0.674 2.293 0.674 5.919 0 5.4385 0.30652 6.6734 1.75 7.0507 0.9625 0.25153-0.05 0.45732-2.25 0.45732s-3.1823-0.21162-2.1828-0.47027zm10 0c1.5347-0.39715 1.7797-1.3886 1.5762-6.3768-0.13258-3.2486 0.06217-6.2098 0.43279-6.5804 0.371-0.371 0.674 2.293 0.674 5.919 0 5.4385 0.30652 6.6734 1.75 7.0507 0.9625 0.25153-0.05 0.45732-2.25 0.45732s-3.1823-0.21162-2.1828-0.47027zm56.113-0.188c0.94-1.521 7.57-1.88 7.57-0.409 0 0.852-1.4 1.299-4.06 1.299-2.2325 0-3.8116-0.40028-3.5093-0.88951zm11.886 0.18724c1.5347-0.39715 1.7797-1.3886 1.5762-6.3768-0.13259-3.2486 0.0622-6.2098 0.43278-6.5804 0.37062-0.37062 0.67385 2.2932 0.67385 5.9195 0 5.4385 0.30652 6.6734 1.75 7.0507 0.9625 0.25153-0.05 0.45732-2.25 0.45732s-3.1822-0.21162-2.1828-0.47027zm-8.0601-4.8765c2.2344-2.665 2.2311-6.0375-0.007-7.3412-2.3033-1.3416-0.68203-1.3817 1.8157-0.04492 2.7197 1.4556 2.4045 4.2006-0.80859 7.0405-1.9907 1.7595-2.2649 1.8543-1 0.34557zm-86.689-0.991c-2.1451-2.1451-1.9719-4.6497 0.54258-7.8464 2.7451-3.4898 3.296-2.8078 1.3991 1.7321-1.8536 4.4363-1.8559 4.2001 0.0583 6.1142 0.865 0.864 1.122 1.571 0.572 1.571s-1.7071-0.70714-2.5714-1.5714zm7.4763 0.62116c-0.79874-0.50477-1.7922-0.70764-2.2078-0.45082-0.41554 0.25682-0.1023-0.78538 0.69609-2.316s1.4544-4.0204 1.4578-5.5329c0.0042-1.8576 0.5281-2.75 1.6146-2.75 1.2354 0 1.4561 0.60681 0.95167 2.6167-1.566 6.245-1.762 8.383-0.767 8.383 0.57292 0 1.2704-0.46125 1.55-1.025 0.27958-0.56375 0.40146-0.47938 0.27083 0.1875-0.3201 1.6342-1.7999 2.0025-3.5648 0.88723zm60.524-0.62116c-2.1451-2.1451-1.9719-4.6497 0.54258-7.8464 2.7451-3.4898 3.296-2.8078 1.3991 1.7321-1.8536 4.4363-1.8559 4.2001 0.0583 6.1142 0.865 0.864 1.122 1.571 0.572 1.571s-1.7071-0.70714-2.5714-1.5714zm7.4763 0.62116c-0.79874-0.50477-1.7922-0.70764-2.2078-0.45082-0.41554 0.25682-0.1023-0.78538 0.69609-2.316s1.4544-4.0204 1.4578-5.5329c0.0042-1.8576 0.5281-2.75 1.6146-2.75 1.2354 0 1.4561 0.60681 0.95167 2.6167-1.566 6.245-1.762 8.383-0.767 8.383 0.57292 0 1.2704-0.46125 1.55-1.025 0.27958-0.56375 0.40146-0.47938 0.27083 0.1875-0.3201 1.6342-1.7999 2.0025-3.5648 0.88723zm7.3984-4.1369c-0.36954-0.59792-0.26645-1.4926 0.22907-1.9881 0.53462-0.53461 0.96186-0.09257 1.0507 1.0871 0.16721 2.2198-0.27313 2.5298-1.2798 0.90096z"/>
 </g>
</svg>
