<svg id="svg5251" xmlns:rdf="http://www.w3.org/1999/02/22-rdf-syntax-ns#" xmlns="http://www.w3.org/2000/svg" height="213" viewBox="0 0 384 213" width="384" version="1.1" xmlns:cc="http://creativecommons.org/ns#" xmlns:dc="http://purl.org/dc/elements/1.1/">
 <path id="path5303" style="stroke:#000000;stroke-width:1px;fill:none" d="m92.149 122.18c6.8102-20.462 38.304 1.499 50.456-16.73 8.6603 18.057 50.416-6.297 55.237 16.199"/>
 <path id="path5269" style="stroke:#000000;stroke-width:1px;fill:none" d="m305.93 71.722c-25.73 36.258-133.35-16.639-148.72 29.478"/>
 <path id="path5275" style="stroke:#000000;stroke-width:1px;fill:none" d="m161.99 83.672c-4.085 5.6086-4.7801 10.765-4.7801 17.793"/>
 <path id="path5277" style="stroke:#000000;stroke-width:1px;fill:none" d="m158.01 100.4c6.3982-1.1921 13.121-5.5854 18.058-7.7012"/>
 <path id="path5295" style="stroke:#000000;stroke-width:1px;fill:none" d="m91.884 172.1c7.246 14.566 27.657 1.7742 36.382 16.73 6.6976-12.003 31.663 5.6277 35.851-9.029"/>
 <path id="path5299" style="stroke:#000000;stroke-width:1px;fill:none" d="m127.2 193.61c25.668 19.728 96.859 21.41 111.27-12.216-0.002 6.8614 0.88704 10.752-2.39 15.668"/>
 <path id="path5301" style="stroke:#000000;stroke-width:1px;fill:none" d="m237.41 181.93c-5.7492 1.6721-12.13 6.2593-16.199 8.7635"/>
 
</svg>
