<svg id="svg3440" xmlns:rdf="http://www.w3.org/1999/02/22-rdf-syntax-ns#" xmlns="http://www.w3.org/2000/svg" height="300" viewBox="0 0 499.99998 300" width="500" version="1.1" xmlns:cc="http://creativecommons.org/ns#" xmlns:dc="http://purl.org/dc/elements/1.1/">
 <g id="layer1" transform="translate(0 -752.36)">
  <text id="text3448" style="word-spacing:0px;letter-spacing:0px" xml:space="preserve" font-size="40px" line-height="125%" y="907.31213" x="72.946159" font-family="sans-serif" fill="#000000"><tspan id="tspan3450" y="907.31213" x="72.946159">5 2 8 3 7 1 9 6 4</tspan></text>
  <g>
   <path id="path3451" d="m85.929 914.54c2.7311-1.1177 5.4767-2.2044 8.0896-3.5858 0.69559-0.36776 1.3736-0.76793 2.0603-1.1519-0.68537 0.3829-2.1639 1.9264-2.0561 1.1487 0.11254-0.81233 1.3941-0.86456 2.0792-1.3152 1.81-1.1906 3.6123-2.4561 5.2248-3.9093 0.44527-0.4013 0.85464-0.84072 1.282-1.2611 1.2509-1.3534 2.4457-2.7873 3.2602-4.453 0.27216-0.55661 0.41833-0.99881 0.62882-1.5739 0.47641-1.5812 0.83499-3.1866 1.0469-4.8237 0.2091-2.2035 0.31789-4.4208 0.0837-6.6244-0.26392-2.1194-1.2864-3.9204-2.6303-5.5324-1.496-1.6546-3.3543-2.9334-5.2561-4.0753-2.5835-1.3462-5.1491-2.7625-7.8907-3.7718-0.63178-0.23257-1.2788-0.42134-1.9183-0.63201-3.3731-0.9385-6.7611-1.7784-10.233-2.245-1.7579-0.13476-3.5442-0.39596-5.3092-0.19653-0.98877 0.11172-1.9719 0.38241-2.9347 0.61387-1.7161 0.49695-3.4336 1.0661-5.0481 1.8408-0.63368 0.30408-2.5403 1.1632-1.8569 0.99903 1.9397-0.46588 4.0542-2.64 0.4798 0.52385-2.5824 2.6366-4.8204 5.601-6.244 9.0283-0.9064 2.1822-1.0398 3.1038-1.6009 5.3899-0.71262 3.6381-0.98305 7.3942-0.39714 11.073 0.35964 2.2584 0.7553 3.2692 1.4272 5.456 2.1296 6.0863 5.9868 11.314 9.984 16.293 2.7057 3.0607 5.6101 6.2901 8.9033 8.7414 1.8534 1.3796 3.0007 1.9164 5.0211 3.0229 5.2714 2.4996 10.915 4.0844 16.625 5.1999l-3.9914 2.7785c-5.7053-1.2218-11.362-2.8504-16.645-5.3621-2.0854-1.1582-3.1602-1.6604-5.0724-3.1008-3.347-2.5211-6.1289-5.7443-8.9042-8.8504-4.0279-5.0279-7.9439-10.289-10.13-16.416-0.68867-2.1973-1.1065-3.2593-1.4838-5.5322-0.61816-3.7238-0.35821-7.5328 0.33127-11.224 0.53716-2.2894 0.68095-3.2863 1.5555-5.4791 1.3829-3.4675 3.585-6.4772 6.1265-9.1828 0.60094-0.56002 1.1276-1.2122 1.8028-1.68 4.0603-2.8134 8.2694-5.3127 13.073-6.5344 1.179-0.26536 1.831-0.45752 3.0197-0.55825 1.7844-0.15121 3.584 0.10121 5.3555 0.27432 3.4626 0.53127 6.846 1.4108 10.214 2.3663 0.6471 0.21858 1.3013 0.41716 1.9413 0.65576 2.7706 1.0329 5.384 2.433 8.0057 3.7863 1.9546 1.1701 3.869 2.476 5.384 4.1976 1.4106 1.7261 2.4449 3.5489 2.7546 5.7959 0.27089 2.2319 0.16914 4.4774-0.007 6.7155-0.17541 1.6728-0.51862 3.301-0.97765 4.9194-0.2055 0.57958-0.37318 1.0924-0.63487 1.6542-0.807 1.7322-2.0199 3.2169-3.2898 4.6291-0.42937 0.43669-0.83843 0.89433-1.2881 1.3101-3.9998 3.6981-8.9816 6.2016-13.599 8.9763-0.69597 0.38161-1.3837 0.77862-2.0879 1.1448-2.6867 1.3972-5.5113 2.4826-8.2729 3.715l4.0004-3.1795z"/>
   <path id="path3461" d="m115.04 928.03c3.451-2.4111 7.1555-4.4527 10.961-6.2491 2.083-1.0337 4.2332-1.9223 6.2801-3.0279 2.6842-1.5097-1.81 1.0498-2.7227 1.5611-0.27041 0.15151 0.53209-0.31814 0.7961-0.48055 0.82873-0.50978 1.6118-1.0613 2.39-1.6446 1.4612-0.99219 2.6122-2.3081 3.6275-3.7355 0.86358-1.2197 1.2001-2.6688 1.5854-4.0858 0.39021-1.4329 0.50393-2.9142 0.5751-4.391 0.0568-1.6562 0.0456-3.3137 0.0419-4.9706 0.0226-1.2838-0.16135-2.5577-0.26295-3.8348-0.0803-1.0852-0.4844-2.1031-0.76631-3.1439-0.23691-1.2596-0.85163-2.3924-1.4931-3.4861-0.90297-1.5808-1.917-3.0952-2.9215-4.6126-1.0652-1.6063-2.3502-3.0463-3.7116-4.4043-1.5657-1.6553-3.366-3.0207-5.2797-4.2423-1.7238-1.0916-3.6498-1.7929-5.5206-2.5822-1.4848-0.67811-3.0541-0.94544-4.6662-1.0661-1.6409-0.0737-3.2638-0.17672-4.8828 0.14304-0.93692 0.20251-1.7983 0.62737-2.6369 1.0779-0.32778 0.1761-1.2982 0.72799-0.97142 0.54995 3.5436-1.9309 4.3847-2.5679 2.134-1.0157-2.796 2.1141-5.0983 4.7581-7.2248 7.5217-1.2976 1.8809-2.5416 3.8138-3.3707 5.9539-0.44822 1.1569-0.51156 1.5446-0.81286 2.7223-0.51014 2.4948-0.59071 5.0559-0.52312 7.5942 0.1638 2.837 1.5551 5.3046 3.0012 7.6752 1.2542 1.9681 2.6437 3.8522 4.2955 5.5065 1.2253 1.2272 1.5223 1.4282 2.8467 2.5426 0.49539 0.40355 0.99168 0.80601 1.4862 1.2107 1.44 1.1783 1.4868 1.2729 2.9995 2.332 1.4931 1.0453 3.0599 1.9565 4.6387 2.8632 4.2053 2.4947 8.8238 4.0757 13.481 5.4782 5.2073 1.3535 10.546 2.1333 15.897 2.6272 3.0587 0.24767 6.1273 0.32123 9.1948 0.34007l-4.0639 2.9423c-3.0339-0.083-6.0682-0.20271-9.0929-0.46175-5.3557-0.54216-10.696-1.3666-15.908-2.7348-4.7122-1.4103-9.3732-3.0153-13.645-5.5021-1.6006-0.91102-3.1689-1.8417-4.6707-2.9115-1.4454-1.0297-1.6302-1.2262-3.0079-2.3544-0.4965-0.4066-0.99401-0.81196-1.491-1.218-1.2724-1.0814-1.7009-1.4014-2.8846-2.5848-1.6778-1.6774-3.0933-3.5867-4.3667-5.5838-1.4904-2.4404-2.9892-4.9457-3.1855-7.8702-0.07836-2.5812 0.01588-5.1862 0.48676-7.7299 0.30065-1.2196 0.35981-1.6048 0.80779-2.8059 0.81475-2.1844 2.0546-4.1528 3.3488-6.0797 2.1072-2.7824 4.3732-5.4495 7.11-7.6418 2.7106-1.9007 1.2417-0.91084 6.4411-3.9787 1.1622-0.68571 2.4104-1.2611 3.7419-1.5146 1.6452-0.22567 3.3061-0.1532 4.96-0.0428 1.6476 0.15407 3.2346 0.49854 4.7437 1.2059 1.8926 0.79191 3.8206 1.5452 5.5467 2.671 1.9299 1.2596 3.7503 2.6558 5.35 4.3247 1.38 1.3854 2.7042 2.8409 3.7733 4.485 1.0116 1.5234 2.0291 3.0451 2.9516 4.6247 0.67176 1.1228 1.3497 2.2888 1.5936 3.5904 0.2808 1.0733 0.70133 2.1162 0.80641 3.2296 0.0931 1.2937 0.27465 2.5845 0.25136 3.8833 0.00073 1.6625 0.004 3.3251-0.028 4.9874-0.0498 1.5075-0.15329 3.0223-0.52721 4.4896-0.36794 1.4609-0.70096 2.9567-1.5128 4.2487-0.99548 1.4682-2.1115 2.879-3.5896 3.8915-2.8232 2.1879-5.9797 3.8842-9.1048 5.6042-2.0529 1.0546-4.1778 1.9556-6.2478 2.9756-0.42354 0.20279-0.84943 0.40074-1.2706 0.60837-0.43297 0.21344-1.697 0.91699-1.2917 0.65477 1.0085-0.65249 2.067-1.2244 3.1054-1.8282 0.3672-0.21353-0.7288 0.43657-1.0918 0.65725-0.32913 0.20012-0.66054 0.39673-0.98448 0.60516-0.26342 0.16949-0.51809 0.3522-0.77714 0.52829l-4.7408 1.9086z"/>
   <path id="path3475" d="m198.59 920.56c2.1572-0.69607-1.468 0.48121 1.5842-0.54639 1.6267-0.54769 1.0725-0.28907 2.83-0.97648 1.6469-0.64413 2.2094-0.92942 3.8741-1.6865 3.5781-1.5468 6.9823-3.4532 10.388-5.3394 0.47028-0.26046-1.8521 1.0885-1.4109 0.78125 0.83885-0.58414 1.7382-1.0762 2.6073-1.6144 3.2088-2.0526 6.3149-4.3382 8.6684-7.3744 1.3756-1.7745 1.5333-2.3065 2.5306-4.2661 1.7111-4.1681 2.0669-8.6704 2.0418-13.128-0.16462-2.8183-0.57221-5.6495-1.4059-8.3544-0.4893-1.5876-0.7876-2.1213-1.4711-3.6357-1.3205-2.8612-2.9772-5.5889-5.0528-7.9705-0.39432-0.45244-0.82813-0.8689-1.2422-1.3034-1.5876-1.4083-3.3929-2.5689-5.4445-3.1663-1.2805-0.37281-2.0205-0.42574-3.3536-0.61367-3.2129-0.36659-6.4415-0.36153-9.6302 0.22301-2.3114 0.42373-3.7214 0.90193-5.9893 1.5649-4.5935 1.7183-5.9897 2.4008-9.1658 4.8721-1.0848 0.84403-2.1362 1.7362-3.119 2.6969-0.96497 0.9432-1.809 2.0027-2.7135 3.0041-0.72934 1.0827-1.5358 2.1173-2.188 3.2482-2.3919 4.1477-3.8449 9.4073-4.1692 14.176-0.0812 1.1939-0.0161 2.3932-0.0242 3.5898 0.41355 5.041 1.5906 10.019 3.7023 14.626 1.5427 3.366 2.0495 3.9022 4.0652 7.0243 4.0478 5.6939 9.0179 10.668 14.328 15.184 0.96979 0.8247 1.9757 1.606 2.9635 2.409 3.8456 3.0372 8.0704 5.6113 12.671 7.3205 1.3069 0.33324 0.68656 0.21205 1.856 0.38806l-4.1625 2.9084c-1.1674-0.26011-0.55022-0.0966-1.8458-0.51227-4.5157-1.8954-8.6782-4.5433-12.479-7.6247-6.3665-5.2998-12.538-10.923-17.329-17.737-0.75582-1.1632-1.5697-2.2906-2.2675-3.4895-3.2807-5.6372-5.1138-11.886-5.6913-18.364-0.00015-1.2141-0.0759-2.4305-0.00045-3.6422 0.29899-4.805 1.7565-10.187 4.117-14.389 0.64752-1.1527 1.4515-2.2102 2.1773-3.3154 0.89986-1.0201 1.7382-2.0979 2.6996-3.0602 3.9996-4.0032 8.8804-6.6614 13.807-9.3674 1.0775-0.59184 2.1855-1.1304 3.3125-1.6215 1.0535-0.45907 2.1482-0.81728 3.2223-1.2259 2.3802-0.68145 3.6527-1.1165 6.0751-1.5395 3.2512-0.56779 6.5484-0.56023 9.8205-0.19472 1.3932 0.21105 2.1091 0.26182 3.4416 0.68071 2.0947 0.65851 3.9316 1.9033 5.5364 3.377 0.41796 0.44791 0.85396 0.87964 1.2539 1.3437 2.0892 2.4243 3.7827 5.1728 5.1028 8.0828 0.71864 1.578 0.99809 2.0542 1.5054 3.7131 0.83897 2.7432 1.2548 5.6138 1.4472 8.4683 0.01 0.72879 0.0443 1.4577 0.0287 2.1864-0.0814 3.7959-0.65171 7.6069-2.0029 11.165-0.99013 2.0154-1.1434 2.559-2.5183 4.3914-2.3267 3.101-5.4232 5.447-8.6569 7.5269-6.4093 3.9991-12.977 7.7941-19.857 10.931-2.7857 1.258-5.6159 2.3835-8.524 3.3285l4.0567-3.1516z"/>
   <path id="path3487" d="m268.53 922.96c2.2866-1.5929 4.4009-3.4059 6.4911-5.2434 1.9139-1.8349 4.0378-3.4345 5.972-5.2458 1.1421-1.0695 1.4821-1.4767 2.5371-2.6159 2.0265-2.2869 3.7136-4.8338 5.1433-7.5273 0.88118-1.7667 1.6509-3.5818 2.3285-5.4351 0.63399-1.8126 0.74799-3.7329 0.83072-5.6341 0.18119-1.9944-0.18082-3.903-0.88956-5.7571-0.55482-1.3901-1.6094-2.3729-2.7611-3.2737-1.1362-0.8537-2.337-1.6225-3.6728-2.1161-1.7954-0.50894-3.6684-0.58698-5.5221-0.64419-1.4884-0.0115-2.979-0.0595-4.4651 0.0374-1.8885 0.13881-3.6537 0.77496-5.3933 1.4792-2.2355 1.0433-4.5311 1.9488-6.8171 2.8734-0.41371 0.18402-0.83063 0.36096-1.2411 0.55205-0.82559 0.38432-1.6718 0.81352-2.4712 1.2498-0.37426 0.20425-1.4846 0.83928-1.1123 0.63158 3.5025-1.9538 4.2975-2.5519 2.2797-1.15-1.1782 0.88944-2.4206 1.8593-3.1628 3.1718-0.14281 0.25255-0.24279 0.52702-0.36418 0.79053-0.62119 2.446-0.81675 5.0492-0.67348 7.57 0.0377 0.66294 0.13543 1.3211 0.20314 1.9816 0.55094 3.534 1.999 6.8333 4.1412 9.6914 0.41989 0.56021 0.88614 1.0841 1.3292 1.6262 2.3781 2.8404 5.3519 5.0968 8.6573 6.7576 0.61908 0.31105 1.2641 0.56761 1.8961 0.85141 0.6518 0.27637 1.2953 0.57332 1.9554 0.8291 1.0486 0.40628 2.9154 1.0066 3.989 1.3482 1.969 0.62656 3.9362 1.235 5.9294 1.7791 2.8529 0.68167 5.7297 1.2546 8.5868 1.9163l-4.1716 2.8813c-2.8113-0.71805-5.6499-1.3231-8.4671-2.0176-4.033-1.1303-8.0641-2.362-11.912-4.0255-0.63579-0.29735-1.2841-0.56935-1.9074-0.89205-3.3366-1.7274-6.3349-4.034-8.7623-6.9086-1.1486-1.4125-1.6-1.8724-2.5556-3.4281-1.5309-2.4922-2.567-5.2483-3.0661-8.1289-0.0766-0.67203-0.18029-1.3415-0.2297-2.0161-0.18742-2.5591-0.0116-5.1707 0.45651-7.6894 0.10312-0.29227 0.17688-0.59663 0.30938-0.87682 0.63554-1.344 1.9962-2.4789 3.1402-3.3652 3.448-2.4984 7.2742-4.5107 11.165-6.2311 2.301-0.92273 4.5878-1.8788 6.8495-2.8951 1.7766-0.68748 3.5957-1.2641 5.5133-1.3653 1.4942-0.0667 2.9914-0.0436 4.486 0.006 1.8925 0.0879 3.8063 0.19817 5.6239 0.77866 1.3608 0.55326 2.6116 1.3353 3.7724 2.235 1.2029 0.9768 2.292 2.0517 2.8786 3.5209 0.71773 1.9156 1.135 3.8891 0.96118 5.9484-0.0656 1.9397-0.1449 3.901-0.7439 5.7646-0.6698 1.8882-1.454 3.7246-2.3451 5.5199-1.4332 2.74-3.1317 5.3312-5.1582 7.6736-1.0125 1.114-1.4387 1.6227-2.537 2.668-1.9194 1.8268-4.0661 3.3978-5.9662 5.247-2.0325 1.8104-4.0694 3.6211-6.2876 5.2053l-4.7708 1.8973z"/>
   <path id="path3491" d="m388.98 927.09c2.7944-0.7877 5.6265-1.4295 8.4052-2.2709 3.3429-1.0047 6.6703-2.104 9.7765-3.7179 0.56327-0.29267 1.1066-0.62224 1.6599-0.93336-0.87962 0.47605-1.6752 1.1603-2.6388 1.4281-0.56638 0.1574 0.94151-0.70507 1.3927-1.0818 1.6634-1.3889 2.872-2.9163 4.0798-4.6963 0.85603-1.404 1.6435-2.8794 2.1602-4.447 0.31211-0.94695 0.3467-1.2785 0.5401-2.2542 0.47071-3.0557 0.43457-6.1491 0.19218-9.2214-0.506-4.4133-2.3736-8.4996-4.2007-12.499-1.5882-3.4604-3.1912-6.9142-4.9937-10.269-1.246-2.1996-2.4229-4.5113-4.2071-6.3314-1.5809-1.4013-3.2638-1.3038-5.2717-1.3963-4.3637-0.36526-8.3275 1.4735-12.268 3.0647-1.7144 0.67977-3.3348 1.2842-4.9942 2.1004-0.85995 0.42296-1.6806 0.92171-2.5296 1.3663-0.54721 0.28656 2.1056-1.2792 1.6242-0.89215-0.75426 0.60641-1.6391 1.0296-2.4508 1.5567-0.79958 0.51919-1.5885 1.0546-2.3828 1.5819-2.0653 1.3641-4.1149 2.7501-6.113 4.2113-1.1162 0.81623-1.8803 1.3588-2.8866 2.2835-0.3574 0.32841-0.6829 0.68993-1.0244 1.0349-1.8246 2.0259-2.5342 4.1408-2.9627 6.7721-0.30327 2.0229-0.16399 4.0308 0.6801 5.9135 0.22807 0.50871 0.51192 0.99054 0.76788 1.4858 2.546 4.1933 5.5964 8.0736 8.6858 11.878 3.3864 4.1986 7.8394 7.2774 12.304 10.214 5.3946 3.3487 10.447 7.1988 15.653 10.823 2.2929 1.5944 4.5705 3.2472 7.0492 4.5495 0.60596 0.31838 1.4739 0.69786 2.1125 0.98446 1.0286 0.46933 0.5315 0.23958 1.4917 0.68836l-4.244 2.8042c-0.94133-0.45642-0.45554-0.22071-1.4573-0.70721-0.70929-0.34612-1.3924-0.66765-2.0814-1.0591-2.423-1.3767-4.6376-3.0884-6.9116-4.6889-5.1436-3.7066-10.252-7.4713-15.651-10.804-4.5119-2.9601-9.016-6.0648-12.426-10.314-1.6244-2.0203-3.1848-4.0812-4.7528-6.1454-1.1611-1.5286-1.9261-2.4747-2.9885-4.0451-0.37877-0.5599-0.7248-1.1413-1.0872-1.7119-0.27778-0.50655-0.58457-0.99823-0.83336-1.5196-0.92381-1.9361-1.1202-4.0224-0.82675-6.1301 0.3922-2.7066 1.0647-4.9366 2.8714-7.0708 0.34678-0.36325 0.67591-0.74421 1.0403-1.0898 1.0895-1.0331 1.6988-1.4444 2.9339-2.3474 2.0213-1.4779 4.0896-2.8875 6.1845-4.259 6.0204-4.0199 12.189-7.955 19.016-10.461 4.1804-1.6842 7.8924-3.3152 12.518-2.9888 2.106 0.0949 3.9544 0.10842 5.5315 1.6855 1.7615 1.9034 2.9362 4.2468 4.1945 6.4949 1.8054 3.3669 3.3469 6.8673 4.9351 10.34 1.8263 4.0523 3.7539 8.1673 4.3386 12.616 0.26869 3.0944 0.35904 6.2145-0.055 9.3025-0.16107 0.90051-0.23194 1.4517-0.50007 2.3296-0.49211 1.6111-1.3073 3.1216-2.148 4.5708-0.62943 0.95053-1.014 1.5786-1.7397 2.4742-2.5431 3.1385-5.9574 5.082-9.5099 6.9735-0.55772 0.30156-1.1066 0.62006-1.6732 0.90468-3.133 1.574-6.4796 2.6335-9.8219 3.6593-2.8388 0.8414-5.7299 1.4949-8.5456 2.4166l4.0384-3.1549z"/>
  </g>
 </g>
</svg>
