<svg id="svg2" xmlns:rdf="http://www.w3.org/1999/02/22-rdf-syntax-ns#" xmlns="http://www.w3.org/2000/svg" height="297mm" width="210mm" version="1.1" xmlns:cc="http://creativecommons.org/ns#" xmlns:dc="http://purl.org/dc/elements/1.1/" viewBox="0 0 744.09448819 1052.3622047">
 <g id="layer1" stroke="#000" stroke-width="1px" fill="none">
  <path id="path3338" d="m3.5532 277.77c143.33-45.45 211.51 74 191.88 204.9-8.9238 59.492-41.206 126.01-97.12 153.97-22.818 11.409-49.103 1.1844-72.248 1.1844-3.5751 0-13.857 0.41442-10.66-1.1844 11.527-5.7633 29.913-5.3541 42.638-8.2908"/>
  <path id="path3342" d="m294.91 318.04c-83.376 17.47-128.17 147.07-94.752 225.04 43.465 101.42 146.13 193.87 241.62 241.62"/>
  <path id="path3344" d="m489.16 364.23c-28.534 15.113-58.396 79.664-35.532 110.15 31.973 42.631 153.88 21.06 131.47-46.191-2.156-6.4681-8.2764 11.782-8.2908 11.844-9.4352 40.886-20.154 80.635-28.425 121.99-12.83 64.15-58.429 291.76-118.44 329.26-49.098 30.686-149.2-226.93-94.752-221.48"/>
  <path id="path3346" d="m601.67 647.3c-19.569 21.084-78.353 179.57-37.901 193.06 60.169 20.056 137.73-142.8 101.86-133.84-54.783 13.696 15.822 210.31 41.454 107.78"/>
  <path id="path3348" d="m627.73 700.6c-34.36-55.61 106.16-182.14 90.01-85.28"/>
 </g>
</svg>
