<svg id="svg3604" xmlns:rdf="http://www.w3.org/1999/02/22-rdf-syntax-ns#" xmlns="http://www.w3.org/2000/svg" height="186" viewBox="0 0 373 186" width="373" version="1.1" xmlns:cc="http://creativecommons.org/ns#" xmlns:dc="http://purl.org/dc/elements/1.1/">
 <g stroke="#000" stroke-width="1px" fill="none">
  <path id="path3634" d="m93.432 56.853c-9.648 9.402-15.242 43.237-1.143 50.287l222.86 2.5715c18.384-5.5591 18.645-48.757 0.57145-56.288l-221.72 2.288"/>
  <path id="path3636" d="m184.86 34.28 0.85717 127.15c6.6688 13.988 35.455 13.951 42.001 0.85717l0.57-127.72c-2.9019-19.861-41.264-17.22-44.002 0.57145"/>
  <path id="path3638" d="m281.72 33.423 0.85718 128.86c8.1031 9.6543 25.957 7.8945 35.716 2.5715v-130.58c-3.52-13.107-30.18-14.022-34.58-0.847"/>
  <path id="path3642" d="m94.003 111.14c-3.5837-0.84292-8.0893 10.923-7.4288 11.143 13.091 4.3637 44.148-27.627 8.286 1.7144-1.7378 1.4218-9.4289 6.4996-9.4289 9.4289 0 9.4375 38.978-18.572 39.716-18.572 8.1185 0-32.287 16.822-32.287 26.572 0 2.2947 47.267-24.858 44.287-24.858-8.0838 0-37.296 34.218-36.287 34.001 4.2539-0.91154 48.573-35.263 48.573-37.144 0-0.71435-11.278 13.13-12 14.286-1.9067 3.0507-32.88 36.298-19.715 29.715 12.524-6.262 56.859-32.103 56.859-50.859 0-0.31899-10.344 13.956-11.143 15.715-4.0806 8.9774-9.7906 19.323-16.572 26.858-4.333 4.8144-17.574 17.763-11.429 15.715 7.4166-2.4722 14.088-10.079 19.715-15.143 6.2736-5.6462 8.6215-10.435 11.143-18.001 2.7291-8.1872 10.249-16.433 0.85718-3.4287-1.6075 2.2258-18.87 28.275-14.858 32.287 1.959 1.959 7.8392-4.7888 8.8575-5.7145 30.327-27.57 21.332-34.018 11.143-6.0002-1.8123 4.9837-5.4944 10.348-5.7145 13.429"/>
  <path id="path3644" d="m99.718 30.28c-14.845 26.132 9.8322 0.63025 11.429 1.4286 1.7561 0.87806-8.0109 20.569-5.4288 21.429 7.7964 2.5988 16.102-18.858 22.572-18.858 4.8648 0-4.2838 8.7794-5.7145 13.429-1.0662 3.4652 0.0546 7.0707 4.0001 3.4287 3.147-2.9049 19.037-24.894 25.144-22.858 1.0367 0.34557-6.2859 17.464-6.2859 20.001 0 2.8523 17.562-14.133 18.286-14.858 6.9908-6.9908-0.78124 11.581 0.28573 13.715 3.5824 7.1647 14.59-19.419 13.429-2.0001"/>
  <path id="path3646" d="m238.58 31.995c-2.5129 16.501 5.0411 2.9591 11.715-3.7144 3.5232-3.5231-10.478 22.048-7.1431 23.715 3.8357 1.9178 12.765-11.28 13.429-13.715 3.9408-14.45-7.0205 14.337 4.8573 5.4288 4.9102-3.6826 13.775-19.669 12.286-13.715-1.4141 5.6562-2.4823 13.741-2.0001 15.429"/>
  <path id="path3650" d="m234.87 112.85c-17.44 18.559 17.348-5.143 22.001-5.143 5.6914 0-23.429 28.624-23.429 31.43 0 5.3933 33.548-20.74 32.001-22.286-2.9231-2.9231-30.961 25.424-33.715 28.572-1.1238 1.2844-7.7955 8.5717-7.4288 8.5717 9.6739 0 27.056-13.751 35.144-19.144 4.203-2.802 10.858-15.623 10.858-10.572 0 6.164-35.098 38.904-34.573 39.43 6.4971 6.4971 34.965-27.43 43.144-27.43 0.15848 0-13.197 12.626-23.144 22.572-13.086 13.086 20.725-7.1228 21.144-6.2859 0.55476 1.1095-15.753 26.614-1.4286 10.858"/>
  <path id="path3652" d="m189.15 55.71c0.32699 2.4095-4.8338 8.9044-4.0001 10.572 2.2592 4.5184 20.001-11.773 20.001-9.7146 0 0.41214-19.757 16.244-16.572 19.429 2.2127 2.2127 30.516-20.23 29.144-18.858-3.1542 3.1542-34.111 32.352-30.858 38.859 4.5436 9.0873 34.001-28.222 34.001-24.572 0 12.487-31.215 37.716-22.001 37.716 12.789 0 48.411-45.025 22.286-2.5715"/>
  <path id="path3654" d="m287.15 54.567c1.2208 1.0513-5.544 12.086-5.143 12.286 7.4992 3.7496 23.535-10.441 21.429-11.143-1.3759-0.45865-24.376 24.305-22.858 28.858 1.4553 4.3659 34.891-31.177 30.858-27.144-8.2832 8.2832-13.947 17.949-19.429 28.001-2.1825 4.0012-10.324 13.727-6.0002 12.286 11.057-3.6858 27.58-29.43 29.715-29.43 4.7446 0-19.861 21.278-16.001 32.858 0.4837 1.4511 4.9128-4.091 5.143-4.2859 2.2198-1.8783 10.286-6.989 10.286-10.572 0-6.0491-6.3709 10.304-10 15.143-7.8941 10.526 10.014-3.6766 7.7146 6.2859"/>
 </g>
</svg>
