<svg id="svg3440" xmlns:rdf="http://www.w3.org/1999/02/22-rdf-syntax-ns#" xmlns="http://www.w3.org/2000/svg" height="300" width="500" version="1.1" xmlns:cc="http://creativecommons.org/ns#" xmlns:dc="http://purl.org/dc/elements/1.1/" viewBox="0 0 499.99998 300">
 <g id="layer1" transform="translate(0 -752.36)">
  <text id="text3448" style="word-spacing:0px;letter-spacing:0px" xml:space="preserve" font-size="40px" y="907.31213" x="72.946159" font-family="sans-serif" line-height="125%" fill="#000000"><tspan id="tspan3450" x="72.946159" y="907.31213">5 2 8 3 7 1 9 6 4</tspan></text>
  <g>
   <path id="path3518" d="m94.307 911.55c0.19961-0.11084 0.39677-0.2262 0.59882-0.33253 0.23074-0.12142 0.46826-0.22961 0.69924-0.35058 0.23655-0.12389 0.93417-0.51775 0.70312-0.38389-8.7672 5.0791-5.2568 3.027-3.3437 1.8979 1.4011-0.70455 2.379-1.8857 3.3419-3.08 0.97584-1.136 1.5657-2.5064 2.227-3.8312 0.81039-1.3908 1.681-2.742 2.4723-4.1441 0.63982-1.3047 1.2689-2.6268 1.7172-4.0116 0.3564-1.2334 0.41286-2.5193 0.44627-3.7942 0.0209-1.2838 0.013-2.568 0.007-3.852 0.0816-1.3544-0.20495-2.6329-0.6989-3.8827-0.55585-1.5149-1.2961-2.9581-2.1039-4.3526-0.77365-1.3318-1.5783-2.6455-2.3784-3.9617-0.75751-1.2885-1.7475-2.4212-2.7955-3.48-1.4076-1.2776-3.1373-1.9702-4.8508-2.7108-1.6112-0.7294-3.3389-1.1052-5.0296-1.5914-2.004-0.59795-4.0959-0.72361-6.172-0.81886-2.1145-0.088-4.2241-0.0906-6.3329 0.0834-1.9903 0.35519-3.8826 0.97397-5.6463 1.9618 8.8439-5.0452 4.254-2.5784 2.4526-1.1478-0.55251 0.43878-0.71684 0.62032-1.232 1.1145-1.4065 1.4413-2.2547 3.2009-2.7933 5.1166-0.51828 2.3376-0.54769 4.743-0.58627 7.1261-0.012 2.1012 0.0081 4.2024 0.01528 6.3037-0.11745 1.9728 0.11619 3.5223 0.66996 5.4004 0.73102 1.7284 1.4384 3.4663 2.1796 5.1906 0.69796 1.4979 1.5915 2.9049 2.5446 4.2526 1.1116 1.353 2.294 2.6431 3.4995 3.9121 1.3417 1.3336 2.8075 2.5328 4.3122 3.6763 1.0698 0.94303 2.3066 1.6191 3.5221 2.3417 0.81614 0.55554 1.7174 0.96075 2.5708 1.4539l-5.3023 3.4522c-0.86911-0.47418-1.7634-0.90514-2.5903-1.453-1.2498-0.71298-2.4493-1.4849-3.5472-2.4224-1.5132-1.18-2.9854-2.4184-4.3549-3.7638-1.2305-1.2872-2.4357-2.5985-3.5523-3.987-0.9817-1.3819-1.9055-2.8282-2.6131-4.3704-0.73301-1.7532-1.4428-3.5138-2.2091-5.253-0.57441-1.8772-0.89032-3.5889-0.74473-5.5668-0.0069-2.109-0.01482-4.2181 0.0063-6.327 0.0293-2.4241 0.06321-4.8649 0.50859-7.2556 0.4958-2.077 1.2264-3.7695 2.6241-5.41 0.3264-0.33615 0.83898-0.87913 1.1969-1.1893 2.4685-2.1395 5.7734-3.2156 8.3319-5.1357 1.8366-0.8928 3.7736-1.5266 5.8105-1.7635 2.1183-0.13516 4.2378-0.10402 6.3578-0.006 2.116 0.11128 4.2398 0.28877 6.2756 0.91927 1.7182 0.47315 3.4569 0.88869 5.0751 1.6603 1.7847 0.76035 3.5496 1.5764 4.9952 2.9081 1.0806 1.0981 2.1168 2.2552 2.8809 3.6019 0.79691 1.3233 1.6226 2.6303 2.3762 3.979 0.81407 1.4235 1.5902 2.8836 2.17 4.4196 0.52568 1.3126 0.88755 2.6615 0.8156 4.0905 0.002 1.2891 0.0136 2.5782 0.001 3.8672-0.0279 1.3244-0.0633 2.6576-0.3751 3.9523-0.41536 1.4399-1.068 2.7814-1.6776 4.1466-0.79442 1.3912-1.5852 2.7812-2.474 4.1158-0.70289 1.3311-1.2188 2.7662-2.1774 3.9493-0.96781 1.2106-1.8693 2.5354-3.2625 3.2958-3.1574 1.8466-6.2824 3.7547-9.5394 5.4226l4.9782-3.9821z"/>
   <path id="path3520" d="m124.9 914.64c3.0423-1.9494 6.1625-3.7831 9.3709-5.4467 1.0183-0.70071 2.2323-0.96245 3.3695-1.397 1.9648-1.0172 5.0557-2.7476-3.8944 2.2639-0.17095 0.0957 0.32652-0.21684 0.48487-0.3322 0.41071-0.29922 0.58285-0.45999 0.97808-0.79699 1.0875-0.91282 2.0214-1.9529 2.8353-3.1119 0.95005-1.3168 1.6594-2.7626 2.2005-4.2877 0.46744-1.4008 0.6035-2.8691 0.67689-4.3342 0.0434-1.2993 0.0293-2.5995 0.0268-3.8992-0.0297-1.3016-0.30152-2.5732-0.52945-3.8489-0.12398-1.2112-0.34512-2.3823-0.78083-3.5207-0.41222-1.1815-0.69664-2.3917-1.1637-3.5557-0.45241-1.352-1.0734-2.635-1.6488-3.9367-0.58521-1.3828-1.5396-2.5321-2.526-3.6432-0.94985-1.1521-2.2163-1.9162-3.5504-2.5425-1.432-0.61863-3.0032-0.73459-4.5421-0.81986-1.4353-0.0538-2.872-0.0375-4.3081-0.0401-1.5638 0.00023-3.1277 0.009-4.6915 0.0176-1.2046-0.0304-2.393 0.003-3.5876 0.15183-1.3715 0.073-2.5826 0.70549-3.8175 1.2363-0.56749 0.25224-0.76156 0.32375-1.3044 0.62344-0.20379 0.11252-0.80273 0.47182-0.60043 0.35664 8.5389-4.8616 5.6166-3.3985 3.8078-2.0258-1.0853 0.89235-2.0983 1.8721-3.0641 2.8916-0.78237 1.0071-1.4904 2.0895-1.971 3.274-0.3811 1.3181-0.37763 2.7035-0.53279 4.0588-0.17105 1.3039-0.24618 2.6166-0.28478 3.9302-0.0412 1.4483-0.0341 2.8972-0.0341 4.3459 0.002 1.359 0.0105 2.718 0.004 4.077-0.0801 1.6018 0.0824 3.1839 0.3512 4.7594 0.20135 1.6307 0.70985 3.2083 1.3288 4.7244 0.55766 1.4071 1.2248 2.7481 2.0046 4.043 1.0454 1.4864 2.1212 2.9553 3.2165 4.4064 0.80847 1.3036 1.8292 2.4134 2.9162 3.4838 0.94338 0.97776 1.9364 1.91 2.8728 2.8939 0.8291 1.0356 1.7216 1.9922 2.7243 2.8609l-5.3887 3.3508c-1.0052-0.89273-1.9022-1.8751-2.7698-2.9002-0.92926-0.97752-1.8806-1.9363-2.8292-2.8947-1.1138-1.0884-2.149-2.2318-2.9592-3.5712-1.0936-1.4791-2.1888-2.9583-3.26-4.4526-0.80139-1.3201-1.4858-2.6874-2.0482-4.1278-0.65288-1.5492-1.159-3.1813-1.3974-4.8479-0.27763-1.6045-0.48416-3.2158-0.41129-4.8494-0.008-1.3594-0.002-2.7188-0.002-4.0782-0.00052-1.4522-0.00045-2.9045 0.0152-4.3566 0.0366-1.3313 0.093-2.6629 0.26395-3.985 0.17741-1.3924 0.2022-2.7975 0.4606-4.1791 0.39684-1.2882 1.1668-2.379 1.8838-3.5091 0.92386-1.0728 1.9769-2.0266 3.0166-2.9855 2.6713-2.2173 5.8121-3.8237 8.9658-5.249 1.2655-0.54173 2.545-1.029 3.9387-1.0939 1.2074-0.11847 2.4163-0.10697 3.6286-0.0957 1.5573 0.004 3.1146 0.005 4.6719-0.004 1.4476-0.01 2.8966-0.0206 4.3422 0.071 1.5967 0.13093 3.2148 0.31819 4.6771 1.021 1.3885 0.69243 2.6887 1.5404 3.678 2.7579 1.0254 1.1633 2.0255 2.3602 2.6341 3.8049 0.58178 1.306 1.2062 2.5951 1.668 3.9505 0.47311 1.1648 0.78971 2.3662 1.1793 3.5576 0.45794 1.1723 0.72628 2.3792 0.82968 3.6346 0.22927 1.3108 0.51504 2.611 0.5794 3.9456 0.007 1.3094 0.0166 2.6192-0.0179 3.9283-0.0567 1.5174-0.17944 3.0409-0.62032 4.5027-0.49323 1.5729-1.164 3.0795-2.1137 4.4356-0.78017 1.2134-1.6589 2.3198-2.7664 3.2557-2.4276 2.2633-5.3924 3.9027-8.4525 5.1724-1.1456 0.39717-2.2795 0.80991-3.3142 1.4564-2.2486 1.1568-0.6107 0.32709 4.2088-2.4921 0.22676-0.13264-0.45987 0.25431-0.68504 0.38962-0.47136 0.28326-0.93958 0.57186-1.4032 0.8676-0.20347 0.12979-0.3997 0.2706-0.59955 0.40589l-5.9403 2.3042z"/>
   <path id="path3524" d="m205.01 917.19c0.76556-1.7862 1.6272-3.5263 2.6145-5.2 0.77029-1.4088 1.5427-2.8157 2.3306-4.2151 0.80994-1.2735 1.4368-2.6476 2.2334-3.928 0.82306-1.1342 1.4438-2.3783 2.0624-3.6294 0.64571-1.1625 1.017-2.4098 1.2124-3.7171 0.14859-1.2686 0.14723-2.5484 0.14832-3.8238-0.0205-1.2796 0.0384-2.5622-0.0491-3.8394-0.10228-1.333-0.34475-2.6476-0.72619-3.9278-0.40091-1.3377-0.97507-2.6091-1.5552-3.8761-0.46408-1.3101-1.0537-2.4992-1.8836-3.6133-0.84395-1.0819-1.7886-2.0703-2.8367-2.9532-0.83406-0.80389-1.9092-1.1826-3.005-1.4805-1.3522-0.54404-2.7828-0.85115-4.2001-1.1723-1.2974-0.28861-2.6269-0.35147-3.9507-0.38939-1.2857-0.0243-2.5717-0.0157-3.8576-0.0146-1.3135 0.0815-2.5728 0.46506-3.8707 0.65641-0.79045 0.15324-1.5457 0.47409-2.2504 0.85938-0.1818 0.0994-0.70686 0.43236-0.52648 0.33043 1.6318-0.9221 3.2541-1.8608 4.8811-2.7912-3.4636 2.2252-12.286 6.9113-1.8526 1.1022 0.23194-0.12914-0.44815 0.28502-0.66598 0.43676-0.61378 0.42755-0.70603 0.52558-1.2774 1.0026-1.1314 0.94605-2.1129 2.028-2.9228 3.2577-0.74721 1.0549-1.3 2.1999-1.715 3.4188-0.51934 1.2514-0.85308 2.5379-1.0171 3.8796-0.14427 1.5992-0.14168 3.2067-0.14872 4.8109 0.0168 1.8357-0.0345 3.6719 0.0433 5.5063 0.12727 1.9362 0.64023 3.8288 1.0962 5.7094 0.85154 2.7243 2.0233 5.3375 3.2325 7.9186 1.2377 2.4817 2.7143 4.8407 4.3841 7.0532 1.2423 1.5945 2.6463 3.0506 4.0686 4.483 0.50973 0.50953 1.0234 1.0151 1.5366 1.521l-5.4093 3.317c-0.50986-0.51095-1.0199-1.0218-1.5229-1.5395-1.4191-1.4694-2.823-2.9587-4.0654-4.5836-1.668-2.2645-3.1685-4.6586-4.398-7.1909-1.2265-2.6127-2.4581-5.2405-3.3623-7.985-0.49185-1.9097-1.0034-3.8452-1.1588-5.8138-0.11295-1.8404-0.0597-3.6855-0.0742-5.5287-0.001-1.6205-0.0182-3.244 0.10315-4.8611 0.12344-1.3806 0.36925-2.7249 0.95008-3.9965 0.39879-1.262 0.85507-2.4885 1.6518-3.5657 0.79579-1.2805 1.6978-2.4583 2.8653-3.4317 2.5044-2.245 4.6541-3.0664 7.9565-5.0652 1.5815-0.95723-3.1997 1.8524-4.7965 2.7838-0.19331 0.11277 0.39064-0.2185 0.58595-0.32775 2.7396-1.612 5.607-3.9131 8.8839-4.525 1.3039-0.23567 2.5962-0.57609 3.9311-0.57404 1.2904-0.003 2.5812-0.008 3.871 0.0345 1.3488 0.0591 2.6991 0.16839 4.0138 0.4948 1.4279 0.34303 2.8554 0.68806 4.2368 1.1934 1.1569 0.37405 2.2686 0.83525 3.1495 1.7045 1.0644 0.92978 2.02 1.971 2.8896 3.0857 0.85712 1.152 1.5058 2.3563 1.9544 3.7246 0.5984 1.29 1.1936 2.5836 1.5964 3.951 0.41274 1.3159 0.68962 2.665 0.80224 4.0413 0.1243 1.2912 0.0456 2.5909 0.0738 3.8867-0.002 1.3005 0.007 2.6036-0.11062 3.9002-0.16812 1.3611-0.45925 2.6887-1.1309 3.9019-0.6125 1.2755-1.2013 2.5606-2.0432 3.7063-0.84823 1.2472-1.4276 2.6326-2.2508 3.8948-0.80451 1.3988-1.5888 2.8075-2.3356 4.2382-1.0186 1.6166-1.9208 3.3141-2.5992 5.1031l-5.7904 2.6515z"/>
   <path id="path3528" d="m280.67 914.37c1.6626-0.29487 3.2889-0.83689 4.8516-1.4727 1.9528-1.0342 5.497-2.8729-3.3933 1.9704-0.22541 0.1228 0.42026-0.29515 0.62372-0.45165 0.54478-0.41905 0.79-0.65353 1.3114-1.1158 1.256-1.1226 2.4148-2.3389 3.5126-3.6144 0.85212-0.92687 1.4827-2.0011 2.1084-3.0831 0.63788-0.96943 1.0446-2.0424 1.4646-3.1163 0.62371-1.5194 0.71988-3.1649 0.80286-4.785 0.14807-1.7449 0.30491-3.4882 0.39633-5.2372 0.0615-1.3436 0.0654-2.6888 0.0716-4.0335-0.007-1.2721 0.0662-2.5416-0.14723-3.7997-0.44395-1.3008-1.0435-2.5538-1.6971-3.7626-0.60533-1.0668-1.4297-1.9774-2.2653-2.8655-0.98202-0.99147-1.7583-2.166-2.896-2.9907-0.99692-0.67579-1.9469-1.3693-3.1002-1.7424-1.1707-0.27812-2.3806-0.28249-3.577-0.29589-1.4096-0.006-2.8191-0.00001-4.2287 0.004-1.4013-0.023-2.7897-0.006-4.1814 0.15646-1.2972 0.1753-2.5968 0.11915-3.8433 0.5459-1.9538 0.84324-5.5232 2.759 3.0386-1.8506 0.32345-0.17414-0.61678 0.39964-0.91619 0.61249-0.29892 0.21251-0.59136 0.43433-0.87807 0.66305-0.29164 0.23265-0.57091 0.4804-0.85637 0.7206-1.4595 1.1913-2.549 2.7162-3.4339 4.3627-0.65526 1.4957-1.2885 3.0007-1.7559 4.5665-0.37471 1.3317-0.45992 2.7125-0.50896 4.0872-0.0132 1.3895-0.0544 2.7804 0.0201 4.1684 0.0469 1.5086 0.39988 2.9395 0.91772 4.3474 0.68333 1.6516 1.4472 3.2701 2.2391 4.8722 0.8667 1.5995 1.9289 3.0804 2.916 4.6055 1.0822 1.6185 2.3328 3.1113 3.4561 4.7018 1.166 1.6548 2.4189 3.2484 3.7148 4.803 1.2266 1.5018 2.674 2.7937 4.0235 4.1803 1.1876 1.1167 2.3521 2.2615 3.6643 3.2321l0.60498 0.43628-5.3495 3.3942c-0.20271-0.14893-0.40542-0.29786-0.60814-0.44679-1.3173-1.011-2.505-2.1741-3.6984-3.3263-1.3543-1.4028-2.8148-2.7033-4.0372-4.2293-1.297-1.5738-2.5784-3.1646-3.735-4.8459-1.1355-1.5927-2.4073-3.083-3.4888-4.713-1.0038-1.5432-2.0636-3.0526-2.9453-4.6717-0.80966-1.6173-1.578-3.2559-2.2861-4.9203-0.55731-1.4583-0.96657-2.9354-1.0079-4.5084-0.1127-1.4019-0.0757-2.8096-0.0636-4.2152 0.0341-1.4212 0.10587-2.8507 0.45678-4.2351 0.43151-1.6134 1.0931-3.1364 1.7095-4.6848 0.84883-1.7154 1.9041-3.3441 3.372-4.5983 3.0549-2.7089 6.6075-5.0004 10.461-6.3729 1.2868-0.2859 2.6057-0.29314 3.9113-0.46288 1.4019-0.12713 2.8057-0.10291 4.2122-0.10016 1.4169-0.005 2.834-0.0198 4.2508-0.002 1.2456 0.0334 2.5086 0.0689 3.7033 0.46315 1.1652 0.46715 2.1724 1.1933 3.1949 1.9134 1.1131 0.90071 1.9513 2.0616 2.9579 3.0742 0.86783 0.93233 1.7162 1.8931 2.3417 3.0109 0.68074 1.2691 1.2881 2.5841 1.7924 3.933 0.26565 1.2913 0.21494 2.5921 0.20349 3.9056-0.001 1.3561-0.008 2.7129-0.0712 4.0678-0.0882 1.7524-0.25869 3.498-0.41601 5.2452-0.0769 1.663-0.10479 3.373-0.68654 4.9531-0.41727 1.0985-0.7593 2.2134-1.4028 3.2072-0.66893 1.084-1.2183 2.2384-2.085 3.1916-1.1076 1.2907-2.2397 2.5546-3.506 3.6951-2.7082 2.5375-5.9486 4.4263-9.3612 5.8879-1.6215 0.59207-3.2764 1.1437-4.9931 1.3751l5.115-3.8035z"/>
   <path id="path3530" d="m396.54 914.15c0.24614-0.11057 0.4948-0.21565 0.7384-0.3317 0.27945-0.13312 0.55677-0.27097 0.83042-0.41566 3.92-2.0726-6.5894 4.078-3.0754 1.7267 0.21929-0.14673 0.43182-0.3033 0.64773-0.45495 1.3909-0.86197 2.5813-1.9678 3.6664-3.1829 0.76101-0.96615 1.5566-1.9032 2.3425-2.8488 0.77277-1.0398 1.2609-2.2752 1.7439-3.4717 0.5045-1.4253 0.52255-2.9621 0.56492-4.4574 0.0268-1.3912 0.0181-2.7829 0.0102-4.1743-0.005-1.2908-0.005-2.5815-0.008-3.8723 0.0405-1.3027-0.12746-2.5842-0.51015-3.8263-0.39048-1.2832-1.0295-2.4589-1.6414-3.6445-0.54613-1.1189-1.3586-2.0563-2.1896-2.9695-0.99464-1.18-2.1921-2.1131-3.5006-2.9161-1.8072-0.79201-3.4741-1.837-5.1639-2.8481-1.4572-0.78501-2.9726-1.4176-4.5885-1.7788-1.5756-0.28966-3.1868-0.27877-4.7831-0.29111-1.6006 0.0353-3.2091-0.0767-4.8038 0.0825-1.0562 0.0463-2.0202 0.46711-2.9342 0.96656-0.2647 0.14464-1.0497 0.59484-0.7876 0.44558 1.5263-0.86911 3.0535-1.7368 4.5802-2.6052-1.5432 0.93801-2.8801 2.1053-4.0655 3.4586-0.99105 1.2834-1.591 2.8141-2.0646 4.3516-0.45699 1.6678-0.49369 3.4062-0.52897 5.1236-0.0747 1.8248 0.0539 3.6417 0.3924 5.4347 0.37852 1.6211 1.0863 3.1348 1.8373 4.6118 0.90058 1.9643 2.1773 3.702 3.498 5.398 1.4171 1.6052 2.5825 3.4051 3.9355 5.0608 1.2264 1.5452 2.7452 2.7904 4.3115 3.9707 1.4754 1.0666 2.8303 2.2773 4.3755 3.2455 1.2677 0.86705 2.6437 1.5563 4.005 2.2609 1.4988 0.77623 3.0412 1.4698 4.5302 2.266 1.438 0.72947 2.9509 1.2931 4.4339 1.9258 0.65178 0.2921 1.3322 0.48733 2.023 0.65766l-5.2302 3.5915c-0.69957-0.20777-1.3901-0.43623-2.0556-0.73976-1.4973-0.63434-3.0296-1.1993-4.4626-1.9717-1.496-0.78649-3.0348-1.4899-4.5413-2.2559-1.3659-0.72875-2.752-1.4265-4.0232-2.3172-1.5242-1.0161-2.9108-2.2095-4.3832-3.2971-1.5963-1.2222-3.1381-2.5177-4.3966-4.0992-1.3275-1.6789-2.5074-3.4701-3.9208-5.0814-1.3409-1.728-2.6354-3.5016-3.5861-5.4814-0.79557-1.5233-1.5181-3.095-1.9107-4.7757-0.36747-1.8303-0.55639-3.6823-0.45808-5.5514 0.0338-1.7592 0.0186-3.5428 0.43915-5.2629 0.43326-1.6102 1.053-3.1925 1.9631-4.5957 1.1478-1.4253 2.4487-2.6641 4.0047-3.6442 2.0717-1.2129 4.1366-2.4375 6.2151-3.6387 1.2004-0.69372 2.5099-1.1598 3.9038-1.213 1.6063-0.0727 3.216-0.0288 4.8236-0.0314 1.6301 0.0253 3.2804 0.0266 4.8758 0.40361 1.6401 0.43975 3.2018 1.105 4.6741 1.9536 1.6824 1.0406 3.3997 1.993 5.1843 2.8464 1.3352 0.86083 2.576 1.8332 3.608 3.0525 0.86589 0.95791 1.7207 1.9343 2.2821 3.1105 0.61531 1.2237 1.2767 2.4276 1.691 3.7397 0.4091 1.2972 0.63662 2.6268 0.60191 3.9943-0.001 1.2906 0.002 2.5812 0.006 3.8719 0.001 1.4 0.0103 2.8-0.0162 4.1998-0.0444 1.5504-0.0517 3.1363-0.45092 4.6431-0.2351 0.62943-0.5133 1.2234-0.78902 1.8352-0.19324 0.42877-0.32836 0.88379-0.54316 1.3022-0.0918 0.17874-0.21852 0.33721-0.32779 0.50581-0.74816 0.98726-1.6292 1.87-2.3536 2.8784-1.0378 1.2706-2.2119 2.4649-3.6189 3.3251-3.0835 2.313-6.5113 4.1691-10.027 5.738l5.0011-3.9327z"/>
  </g>
 </g>
</svg>
