<svg id="svg3440" xmlns:rdf="http://www.w3.org/1999/02/22-rdf-syntax-ns#" xmlns="http://www.w3.org/2000/svg" height="87" viewBox="0 0 366.99998 87" width="367" version="1.1" xmlns:cc="http://creativecommons.org/ns#" xmlns:dc="http://purl.org/dc/elements/1.1/">
 <text id="text3448" font-size="40px" style="word-spacing:0px;letter-spacing:0px" line-height="125%" y="49.912132" x="20.697159" font-family="sans-serif" xml:space="preserve" fill="#000000"><tspan id="tspan3450" y="49.912132" x="20.697159">5 2 8 3 7 1 9 6 4</tspan></text>
 <g id="g3436" stroke="#000" stroke-width="1px" fill="none">
  <path id="p5" d="m43.426 82.85c-31.268-0.375-61.013-58.209-23.875-70.588 18.247-6.0824 44.05 10.065 37.37 30.104-3.337 10.009-21.393 13.925-28.201 19.031"/>
  <path id="p2" d="m98.791 73.51c-33.714 11.05-85.274-43.778-37.543-59.689 13.099-4.3662 48.325 27.9 11.765 51.557"/>
  <path id="p3" d="m161.59 85.79c-28.81-13.633-52.96-47.388-26.47-73.875 5.7523-5.7523 16.92-11.687 26.298-9.3426 21.649 5.4121 21.961 30.127 13.668 46.713-3.0704 6.1408-22.575 11.98-28.72 15.052"/>
  <path id="p1" d="m237.02 67.62c-7.4402-1.5151-13.847-3.2904-20.761-6.7474-32.369-16.185-2.2562-50.004 15.744-41.003 18.443 9.2214 6.8719 33.069-6.9204 39.965"/>
  <path id="p4" d="m354.5 83.37c-7.2939-6.2778-17.304-8.1341-24.048-14.879-9.8591-9.8591-19.424-16.356-25.779-29.066-5.0789-10.158 33.514-32.024 41.869-29.239 5.2726 1.7575 9.0685 10.525 11.246 14.879 11.968 23.937 8.1288 33.479-15.571 45.329"/>
  <path id="p7" d="m174.87 63.72c-29.675-8.8225-18.359-79.952 16.417-56.767 24.355 16.236 20.545 48.871-13.846 43.713"/>
  <path id="p6" d="m291.04 65.34c-5.3431-3.5448-6.1218-10.369-9.4942-15.428-9.5477-14.322 1.6165-46.471 21.164-39.955 24.018 8.006 21.503 62.414-13.846 50.042"/>
  <path id="p8" d="m106.27 80.54c-15.793-18.444-35.903-60.623-1.78-71.998 4.37-1.4567 11.169-5.7659 16.219-1.978 18.268 13.701 5.2368 52.439-16.021 51.427"/>
  <path id="p9" d="m251.45 67.96c-7.1029-8.7044-16.7-30.798-12.461-43.515 2.8396-8.5187 22.383-19.368 31.845-14.637 8.7613 4.3806 14.977 10.459 17.406 20.175 0.79023 3.161 4.2197 6.725 2.9669 10.483-3.4878 10.463-24.024 12.659-33.823 12.659"/>
 </g>
</svg>
