<svg id="svg3440" xmlns:rdf="http://www.w3.org/1999/02/22-rdf-syntax-ns#" xmlns="http://www.w3.org/2000/svg" height="300" viewBox="0 0 499.99998 300" width="500" version="1.1" xmlns:cc="http://creativecommons.org/ns#" xmlns:dc="http://purl.org/dc/elements/1.1/">
 <g id="layer1" transform="translate(0 -752.36)">
  <text id="text3448" style="word-spacing:0px;letter-spacing:0px" xml:space="preserve" font-size="40px" line-height="125%" y="907.31213" x="72.946159" font-family="sans-serif" fill="#000000"><tspan id="tspan3450" y="907.31213" x="72.946159">5 2 8 3 7 1 9 6 4</tspan></text>
  <g stroke="#000" stroke-width="1px" fill="none">
   <path id="path3874" d="m95.502 938.87c-8.8078 2.0876-12.367-3.7616-18.685-6.9204-32.447-16.223-32.527-54.066 3.1142-62.976 33.742-8.4355 45.475 32.362 3.4602 46.367"/>
   <path id="path3882" d="m149.74 929.96c-10.468 0.16178-19.635-2.9037-29.152-5.6228-4.9987-1.4282-11.198-4.7007-15.311-7.7855-5.1455-3.8591-13.874-19.276-11.592-26.125 1.0187-3.056 3.4621-5.3947 5.4498-8.045 4.9738-6.6318 4.3553-7.0458 12.543-9.7751 2.8541-0.95136 4.2485 1.2323 6.5744 2.1626 2.041 0.81639 5.2883-0.22929 7.0934 1.1246 9.9764 7.4823 17.042 13.804 17.042 27.509 0 2.2884 1.3945 6.7265 0.25952 8.9965-0.50873 1.0175-3.7109 1.9009-4.7578 2.1626-2.0091 0.50228-3.0365 3.838-5.0173 4.4983-2.747 0.91568-5.113 3.0915-7.3529 4.5848-2.5227 1.6818-6.3371 2.3495-9.083 4.0657"/>
   <path id="path3890" d="m217.65 945.44c-33.208-10.374-68.855-69.983-17.993-82.699 4.557-1.1392 12.137-5.2638 17.128-2.7682 6.293 3.1465 9.8133 8.0348 12.976 14.36 14.297 28.593-14.31 42.035-37.889 49.481"/>
   <path id="path3898" d="m292.14 925.74c-4.6573-3.2421-11.664-1.7816-16.148-4.7711-4.6874-3.125-11.303-3.5959-15.537-7.8296-28.942-28.942 34.621-49.915 34.621-17.861 0 4.8426-8.1239 15.133-12.601 17.372-4.739 2.3695-9.3938 8.6402-14.191 11.744"/>
   <path id="path3904" d="m409.17 941.63c-19.625-4.4966-56.633-30.734-50.692-54.498 1.2432-4.9728 14.201-8.487 18.339-11.246 4.9183-3.2789 16.128-9.8952 22.491-8.3045 6.665 1.6663 8.8835 12.118 10.554 17.128 1.6447 4.9341 5.7661 9.2831 8.1315 14.014 11.599 23.199-28.959 27.826-40.311 32.872"/>
  </g>
 </g>
</svg>
