<svg id="svg4614" xmlns:rdf="http://www.w3.org/1999/02/22-rdf-syntax-ns#" xmlns="http://www.w3.org/2000/svg" height="216" viewBox="0 0 485 216" width="485" version="1.1" xmlns:cc="http://creativecommons.org/ns#" xmlns:dc="http://purl.org/dc/elements/1.1/">
 <path id="path4932" style="fill:#000000" d="m148 173.74c-11.078-15.186-16.585-36.263-17.309-66.25-0.61763-25.565 2.0939-46.092 8.1478-61.683 3.3086-8.5206 11.005-20.817 13.029-20.817 0.96918 0 0.74908 0.85234-0.77157 2.9879-6.2884 8.8312-11.935 26.197-13.978 42.986-1.5146 12.449-1.2535 50.561 0.43331 63.233 2.1409 16.083 7.0846 30.867 13.558 40.543 3.2246 4.8202 0.49563 3.9428-3.11-1zm259.28 2c6.725-10.613 10.06-18.884 13.002-32.25 2.5135-11.417 3.6999-55.672 1.9071-71.139-2.071-17.868-7.5853-35.204-14.114-44.373-1.5206-2.1356-1.7408-2.9879-0.77157-2.9879 2.1723 0 9.9602 12.756 13.432 22 5.7543 15.321 8.3962 35.75 7.8241 60.5-0.55216 23.892-3.5525 39.543-10.311 53.784-4.2114 8.8746-9.5061 16.716-11.287 16.716-0.71771 0-0.60589-0.79353 0.31706-2.25zm-222.66-2.37c-1.8403-1.8403-1.5474-3.8839 0.55654-3.8839 0.77917 0 1.4173 0.9 1.418 2 0.00088 1.3324 0.66843 2 2 2 1.5952 0 2.0623-0.77256 2.3136-3.8266 0.26259-3.1905-0.0351-3.9182-1.7908-4.3773l-2.1057-0.55066 2.0977-1.4693c2.6697-1.8699 2.3206-5.7762-0.51613-5.7762-1.35 0-1.9045 0.56872-1.7062 1.75 0.17426 1.0379-0.33441 1.75-1.25 1.75-2.458 0-1.7877-2.9318 0.95616-4.182 5.0772-2.3133 10.038 2.8311 5.9782 6.2001-1.3441 1.1155-1.2857 1.4284 0.5 2.6791 2.6794 1.8767 2.5778 5.7999-0.20068 7.746-2.8657 2.0072-6.2082 1.9831-8.2507-0.0594zm15.223 0.91034c2.0926-0.40305 2.25-0.95324 2.25-7.8638 0-7.0046-0.12895-7.4371-2.25-7.5464-2.0386-0.10511-2.0621-0.16218-0.25-0.60761 1.1-0.27038 2.4914-0.88928 3.092-1.3753 1.9147-1.5495 2.408 0.23119 2.408 8.6923 0 7.0258 0.26149 8.3284 1.75 8.7173 0.9625 0.25153-0.725 0.44825-3.75 0.43715s-4.4875-0.2152-3.25-0.45355zm76.78-0.91c-1.8403-1.8403-1.5474-3.8839 0.55654-3.8839 0.77917 0 1.4173 0.9 1.418 2 0.00088 1.3324 0.66843 2 2 2 1.5952 0 2.0623-0.77256 2.3136-3.8266 0.26259-3.1905-0.0351-3.9182-1.7908-4.3773l-2.1057-0.55066 2.0977-1.4693c2.6697-1.8699 2.3206-5.7762-0.51613-5.7762-1.35 0-1.9045 0.56872-1.7062 1.75 0.17426 1.0379-0.33441 1.75-1.25 1.75-2.458 0-1.7877-2.9318 0.95616-4.182 5.0772-2.3133 10.038 2.8311 5.9782 6.2001-1.3441 1.1155-1.2857 1.4284 0.5 2.6791 2.6794 1.8767 2.5778 5.7999-0.20068 7.746-2.8657 2.0072-6.2082 1.9831-8.2507-0.0594zm14.655-1.4245c4.6835-6.1433 6.8181-9.2729 6.8181-9.9965 0-0.40773-0.84842-1.7891-1.8854-3.0697-1.6404-2.0258-2.1014-2.1491-3.5473-0.94906-1.3055 1.0834-1.3855 1.5502-0.37297 2.1759 0.97432 0.60216 1.0071 1.0785 0.13446 1.9511-1.2083 1.2083-3.3288 0.48826-3.3288-1.1302 0-1.6874 3.9509-4.941 6-4.941 2.5263 0 6 3.4071 6 5.8849 0 1.0367-1.9079 3.7367-4.2397 6l-4.2397 4.1151h3.1564c1.736 0 3.3573-0.5625 3.6028-1.25 0.74961-2.0989 1.6799-0.31188 1.064 2.0437-0.50595 1.9347-1.248 2.2063-6.0284 2.2063h-5.4515l2.3181-3.0406zm78.345 1.4245c-1.8403-1.8403-1.5474-3.8839 0.55654-3.8839 0.77917 0 1.4173 0.9 1.418 2 0.00088 1.3324 0.66843 2 2 2 1.5952 0 2.0623-0.77256 2.3136-3.8266 0.26259-3.1905-0.0351-3.9182-1.7908-4.3773l-2.1057-0.55066 2.0977-1.4693c2.6697-1.8699 2.3206-5.7762-0.51613-5.7762-1.35 0-1.9045 0.56872-1.7062 1.75 0.17426 1.0379-0.33441 1.75-1.25 1.75-2.458 0-1.7877-2.9318 0.95616-4.182 5.0772-2.3133 10.038 2.8311 5.9782 6.2001-1.3441 1.1155-1.2857 1.4284 0.5 2.6791 2.6794 1.8767 2.5778 5.7999-0.20068 7.746-2.8657 2.0072-6.2082 1.9831-8.2507-0.0594zm14 0c-1.8403-1.8403-1.5474-3.8839 0.55654-3.8839 0.77917 0 1.4173 0.9 1.418 2 0.00088 1.3324 0.66843 2 2 2 1.5952 0 2.0623-0.77256 2.3136-3.8266 0.26259-3.1905-0.0351-3.9182-1.7908-4.3773l-2.1057-0.55066 2.0977-1.4693c2.6697-1.8699 2.3206-5.7762-0.51613-5.7762-1.35 0-1.9045 0.56872-1.7062 1.75 0.17426 1.0379-0.33441 1.75-1.25 1.75-2.458 0-1.7877-2.9318 0.95616-4.182 5.0772-2.3133 10.038 2.8311 5.9782 6.2001-1.3441 1.1155-1.2857 1.4284 0.5 2.6791 2.6794 1.8767 2.5778 5.7999-0.20068 7.746-2.8657 2.0072-6.2082 1.9831-8.2507-0.0594zm-220.09-4.8038c-2.6599-1.9456-2.514-9.6607 0.25327-13.387 2.7638-3.7218 6.5431-5.7206 8.8988-4.7066 1.0488 0.45147 2.6943 0.72341 3.6568 0.60431 2.0738-0.25662 2.0704-0.36672 0.25 7.9092-0.78636 3.575-1.4456 7.0625-1.4649 7.75-0.0642 2.2858 1.9982 1.2906 3.1088-1.5 0.64119-1.6111 1.2911-2.219 1.5693-1.468 0.60862 1.6433-2.3609 6.218-4.0363 6.218-0.70232 0-1.7686-0.49169-2.3696-1.0926-0.79019-0.79019-1.6578-0.79019-3.1343 0-2.7252 1.4585-4.4021 1.377-6.732-0.3272zm8.4287-4.8225c2.0486-6.4794 2.3453-10.334 0.88844-11.543-3.2973-2.7365-7.7385 4.397-7.7527 12.452-0.01 5.5593 5.0301 4.8919 6.8642-0.90899zm84.571 4.8225c-2.6599-1.9456-2.514-9.6607 0.25327-13.387 2.7638-3.7218 6.5431-5.7206 8.8988-4.7066 1.0488 0.45147 2.6943 0.72341 3.6568 0.60431 2.0738-0.25662 2.0704-0.36672 0.25 7.9092-0.78636 3.575-1.4456 7.0625-1.4649 7.75-0.0642 2.2858 1.9982 1.2906 3.1088-1.5 0.64119-1.6111 1.2911-2.219 1.5693-1.468 0.60862 1.6433-2.3609 6.218-4.0363 6.218-0.70232 0-1.7686-0.49169-2.3696-1.0926-0.79019-0.79019-1.6578-0.79019-3.1343 0-2.7252 1.4585-4.4021 1.377-6.732-0.3272zm8.4287-4.8225c2.0486-6.4794 2.3453-10.334 0.88844-11.543-3.2973-2.7365-7.7385 4.397-7.7527 12.452-0.01 5.5593 5.0301 4.8919 6.8642-0.90899zm84.571 4.8225c-2.6599-1.9456-2.514-9.6607 0.25327-13.387 2.7638-3.7218 6.5431-5.7206 8.8988-4.7066 1.0488 0.45147 2.6943 0.72341 3.6568 0.60431 2.0738-0.25662 2.0704-0.36672 0.25 7.9092-0.78636 3.575-1.4456 7.0625-1.4649 7.75-0.0642 2.2858 1.9982 1.2906 3.1088-1.5 0.64119-1.6111 1.2911-2.219 1.5693-1.468 0.60862 1.6433-2.3609 6.218-4.0363 6.218-0.70232 0-1.7686-0.49169-2.3696-1.0926-0.79019-0.79019-1.6578-0.79019-3.1343 0-2.7252 1.4585-4.4021 1.377-6.732-0.3272zm8.4287-4.8225c2.0486-6.4794 2.3453-10.334 0.88844-11.543-3.2973-2.7365-7.7385 4.397-7.7527 12.452-0.01 5.5593 5.0301 4.8919 6.8642-0.90899zm-172.69-47.8c4.6835-6.1433 6.8181-9.2729 6.8181-9.9965 0-0.40773-0.84842-1.7891-1.8854-3.0697-1.6404-2.0258-2.1014-2.1491-3.5473-0.94906-1.3055 1.0834-1.3855 1.5502-0.37297 2.1759 0.97432 0.60216 1.0071 1.0785 0.13446 1.9511-1.2083 1.2083-3.3288 0.48826-3.3288-1.1302 0-1.6874 3.9509-4.941 6-4.941 2.5263 0 6 3.4071 6 5.8849 0 1.0367-1.9079 3.7367-4.2397 6l-4.2397 4.1151h3.1564c1.736 0 3.3573-0.5625 3.6028-1.25 0.74961-2.0989 1.6799-0.31188 1.064 2.0437-0.50595 1.9347-1.248 2.2063-6.0284 2.2063h-5.4515l2.3181-3.0406zm14.568 2.3349c2.0926-0.40305 2.25-0.95324 2.25-7.8638 0-7.0046-0.12895-7.4371-2.25-7.5464-2.0386-0.10511-2.0621-0.16218-0.25-0.60761 1.1-0.27038 2.4914-0.88928 3.092-1.3753 1.9147-1.5495 2.408 0.23119 2.408 8.6923 0 7.0258 0.26149 8.3284 1.75 8.7173 0.9625 0.25153-0.725 0.44825-3.75 0.43715s-4.4875-0.2152-3.25-0.45355zm77.432-2.3349c4.6835-6.1433 6.8181-9.2729 6.8181-9.9965 0-0.40773-0.84842-1.7891-1.8854-3.0697-1.6404-2.0258-2.1014-2.1491-3.5473-0.94906-1.3055 1.0834-1.3855 1.5502-0.37297 2.1759 0.97432 0.60216 1.0071 1.0785 0.13446 1.9511-1.2083 1.2083-3.3288 0.48826-3.3288-1.1302 0-1.6874 3.9509-4.941 6-4.941 2.5263 0 6 3.4071 6 5.8849 0 1.0367-1.9079 3.7367-4.2397 6l-4.2397 4.1151h3.1564c1.736 0 3.3573-0.5625 3.6028-1.25 0.74961-2.0989 1.6799-0.31188 1.064 2.0437-0.50595 1.9347-1.248 2.2063-6.0284 2.2063h-5.4515l2.3181-3.0406zm14 0c4.6835-6.1433 6.8181-9.2729 6.8181-9.9965 0-0.40773-0.84842-1.7891-1.8854-3.0697-1.6404-2.0258-2.1014-2.1491-3.5473-0.94906-1.3055 1.0834-1.3855 1.5502-0.37297 2.1759 0.97432 0.60216 1.0071 1.0785 0.13446 1.9511-1.2083 1.2083-3.3288 0.48826-3.3288-1.1302 0-1.6874 3.9509-4.941 6-4.941 2.5263 0 6 3.4071 6 5.8849 0 1.0367-1.9079 3.7367-4.2397 6l-4.2397 4.1151h3.1564c1.736 0 3.3573-0.5625 3.6028-1.25 0.74961-2.0989 1.6799-0.31188 1.064 2.0437-0.50595 1.9347-1.248 2.2063-6.0284 2.2063h-5.4515l2.3181-3.0406zm79 0c4.6835-6.1433 6.8181-9.2729 6.8181-9.9965 0-0.40773-0.84842-1.7891-1.8854-3.0697-1.6404-2.0258-2.1014-2.1491-3.5473-0.94906-1.3055 1.0834-1.3855 1.5502-0.37297 2.1759 0.97432 0.60216 1.0071 1.0785 0.13446 1.9511-1.2083 1.2083-3.3288 0.48826-3.3288-1.1302 0-1.6874 3.9509-4.941 6-4.941 2.5263 0 6 3.4071 6 5.8849 0 1.0367-1.9079 3.7367-4.2397 6l-4.2397 4.1151h3.1564c1.736 0 3.3573-0.5625 3.6028-1.25 0.74961-2.0989 1.6799-0.31188 1.064 2.0437-0.50595 1.9347-1.248 2.2063-6.0284 2.2063h-5.4515l2.3181-3.0406zm13.345 1.4245c-1.8403-1.8403-1.5474-3.8839 0.55654-3.8839 0.77917 0 1.4173 0.9 1.418 2 0.00088 1.3324 0.66843 2 2 2 1.5952 0 2.0623-0.77256 2.3136-3.8266 0.26259-3.1905-0.0351-3.9182-1.7908-4.3773l-2.1057-0.55066 2.0977-1.4693c2.6697-1.8699 2.3206-5.7762-0.51613-5.7762-1.35 0-1.9045 0.56872-1.7062 1.75 0.17426 1.0379-0.33441 1.75-1.25 1.75-2.458 0-1.7877-2.9318 0.95616-4.182 5.0772-2.3133 10.038 2.8311 5.9782 6.2001-1.3441 1.1155-1.2857 1.4284 0.5 2.6791 2.6794 1.8767 2.5778 5.7999-0.20068 7.746-2.8657 2.0072-6.2082 1.9831-8.2507-0.0594zm-220.09-4.8038c-2.6599-1.9456-2.514-9.6607 0.25327-13.387 2.7638-3.7218 6.5431-5.7206 8.8988-4.7066 1.0488 0.45147 2.6943 0.72341 3.6568 0.60431 2.0738-0.25662 2.0704-0.36672 0.25 7.9092-0.78636 3.575-1.4456 7.0625-1.4649 7.75-0.0642 2.2858 1.9982 1.2906 3.1088-1.5 0.64119-1.6111 1.2911-2.219 1.5693-1.468 0.60862 1.6433-2.3609 6.218-4.0363 6.218-0.70232 0-1.7686-0.49169-2.3696-1.0926-0.79019-0.79019-1.6578-0.79019-3.1343 0-2.7252 1.4585-4.4021 1.377-6.732-0.3272zm8.4287-4.8225c2.0486-6.4794 2.3453-10.334 0.88844-11.543-3.2973-2.7365-7.7385 4.397-7.7527 12.452-0.01 5.5593 5.0301 4.8919 6.8642-0.90899zm84.571 4.8225c-2.6599-1.9456-2.514-9.6607 0.25327-13.387 2.7638-3.7218 6.5431-5.7206 8.8988-4.7066 1.0488 0.45147 2.6943 0.72341 3.6568 0.60431 2.0738-0.25662 2.0704-0.36672 0.25 7.9092-0.78636 3.575-1.4456 7.0625-1.4649 7.75-0.0642 2.2858 1.9982 1.2906 3.1088-1.5 0.64119-1.6111 1.2911-2.219 1.5693-1.468 0.60862 1.6433-2.3609 6.218-4.0363 6.218-0.70232 0-1.7686-0.49169-2.3696-1.0926-0.79019-0.79019-1.6578-0.79019-3.1343 0-2.7252 1.4585-4.4021 1.377-6.732-0.3272zm8.4287-4.8225c2.0486-6.4794 2.3453-10.334 0.88844-11.543-3.2973-2.7365-7.7385 4.397-7.7527 12.452-0.01 5.5593 5.0301 4.8919 6.8642-0.90899zm84.571 4.8225c-2.6599-1.9456-2.514-9.6607 0.25327-13.387 2.7638-3.7218 6.5431-5.7206 8.8988-4.7066 1.0488 0.45147 2.6943 0.72341 3.6568 0.60431 2.0738-0.25662 2.0704-0.36672 0.25 7.9092-0.78636 3.575-1.4456 7.0625-1.4649 7.75-0.0642 2.2858 1.9982 1.2906 3.1088-1.5 0.64119-1.6111 1.2911-2.219 1.5693-1.468 0.60862 1.6433-2.3609 6.218-4.0363 6.218-0.70232 0-1.7686-0.49169-2.3696-1.0926-0.79019-0.79019-1.6578-0.79019-3.1343 0-2.7252 1.4585-4.4021 1.377-6.732-0.3272zm8.4287-4.8225c2.0486-6.4794 2.3453-10.334 0.88844-11.543-3.2973-2.7365-7.7385 4.397-7.7527 12.452-0.01 5.5593 5.0301 4.8919 6.8642-0.90899zm-321.55 3.5934c0.35693-0.35692 1.6443-1.1452 2.8607-1.7516 1.2165-0.60648 5.4799-6.7204 9.4744-13.587 3.9944-6.8662 7.6784-12.622 8.1865-12.792 1.1726-0.39086 1.8709 3.7366 2.7336 16.156 0.58908 8.4807 0.9507 9.9464 2.5576 10.367 3.7683 0.98544 1.7247 2.2562-3.6285 2.2562-3.025 0-5.5-0.45-5.5-1s0.675-1 1.5-1c1 0 1.5-1 1.5-3 0-2.935-0.10873-3-5.0214-3-4.4713 0-5.1547 0.29258-6.2382 2.6706-0.96119 2.1096-0.95669 2.7573 0.02144 3.0833 2.9911 0.99704 0.80654 2.2461-3.9284 2.2461-2.8417 0-4.8746-0.29203-4.5177-0.64896zm18.954-14.602c-0.23786-2.8875-0.53512-5.665-0.66059-6.1722-0.2085-0.84284-6.6134 9.7203-6.6134 10.907 0 0.28333 1.7339 0.51515 3.8532 0.51515h3.8532l-0.43247-5.25zm24.226 8.25c-0.40047-0.64797 4.176-1 13-1s13.4 0.35203 13 1c-0.35818 0.57955-5.824 1-13 1s-12.642-0.42045-13-1zm0-8c0.35818-0.57955 5.824-1 13-1s12.642 0.42045 13 1c0.40047 0.64797-4.176 1-13 1s-13.4-0.35203-13-1zm106.25-34.708c2.0926-0.40305 2.25-0.95324 2.25-7.8638 0-7.0046-0.12895-7.4371-2.25-7.5464-2.0386-0.1051-2.0621-0.16218-0.25-0.60761 1.1-0.27038 2.4914-0.88928 3.092-1.3753 1.9147-1.5495 2.408 0.23119 2.408 8.6923 0 7.0258 0.26149 8.3283 1.75 8.7173 0.9625 0.25153-0.725 0.44824-3.75 0.43714s-4.4875-0.2152-3.25-0.45355zm14 0c2.0926-0.40305 2.25-0.95324 2.25-7.8638 0-7.0046-0.12895-7.4371-2.25-7.5464-2.0386-0.1051-2.0621-0.16218-0.25-0.60761 1.1-0.27038 2.4914-0.88928 3.092-1.3753 1.9147-1.5495 2.408 0.23119 2.408 8.6923 0 7.0258 0.26149 8.3283 1.75 8.7173 0.9625 0.25153-0.725 0.44824-3.75 0.43714s-4.4875-0.2152-3.25-0.45355zm78 0c2.0926-0.40305 2.25-0.95324 2.25-7.8638 0-7.0046-0.12895-7.4371-2.25-7.5464-2.0386-0.1051-2.0621-0.16218-0.25-0.60761 1.1-0.27038 2.4914-0.88928 3.092-1.3753 1.9147-1.5495 2.408 0.23119 2.408 8.6923 0 7.0258 0.26149 8.3283 1.75 8.7173 0.9625 0.25153-0.725 0.44824-3.75 0.43714s-4.4875-0.2152-3.25-0.45355zm13.432-2.3349c4.6835-6.1433 6.8181-9.2729 6.8181-9.9965 0-0.40773-0.84842-1.7891-1.8854-3.0697-1.6404-2.0257-2.1014-2.1491-3.5473-0.94906-1.3055 1.0834-1.3855 1.5502-0.37297 2.1759 0.97432 0.60216 1.0071 1.0785 0.13446 1.9511-1.2083 1.2083-3.3288 0.48826-3.3288-1.1302 0-1.6874 3.9509-4.941 6-4.941 2.5263 0 6 3.4071 6 5.8849 0 1.0367-1.9079 3.7367-4.2397 6l-4.2397 4.1151h3.1564c1.736 0 3.3573-0.5625 3.6028-1.25 0.74961-2.0989 1.6799-0.31188 1.064 2.0437-0.50595 1.9347-1.248 2.2063-6.0284 2.2063h-5.4515l2.3181-3.0406zm79.568 2.3349c2.0926-0.40305 2.25-0.95324 2.25-7.8638 0-7.0046-0.12895-7.4371-2.25-7.5464-2.0386-0.1051-2.0621-0.16218-0.25-0.60761 1.1-0.27038 2.4914-0.88928 3.092-1.3753 1.9147-1.5495 2.408 0.23119 2.408 8.6923 0 7.0258 0.26149 8.3283 1.75 8.7173 0.9625 0.25153-0.725 0.44824-3.75 0.43714s-4.4875-0.2152-3.25-0.45355zm12.78-0.911c-1.8403-1.8403-1.5474-3.8839 0.55654-3.8839 0.77917 0 1.4173 0.9 1.418 2 0.00088 1.3325 0.66843 2 2 2 1.5952 0 2.0623-0.77256 2.3136-3.8266 0.26259-3.1905-0.0351-3.9182-1.7908-4.3773l-2.1057-0.55065 2.0977-1.4693c2.6697-1.8699 2.3206-5.7762-0.51613-5.7762-1.35 0-1.9045 0.56872-1.7062 1.75 0.17426 1.0379-0.33441 1.75-1.25 1.75-2.458 0-1.7877-2.9318 0.95616-4.182 5.0772-2.3133 10.038 2.8311 5.9782 6.2001-1.3441 1.1155-1.2857 1.4284 0.5 2.6791 2.6794 1.8767 2.5778 5.7999-0.20068 7.746-2.8657 2.0072-6.2082 1.9831-8.2507-0.05937zm-220.09-4.803c-2.6599-1.9456-2.514-9.6607 0.25327-13.387 2.7638-3.7218 6.5431-5.7206 8.8988-4.7066 1.0488 0.45147 2.6943 0.72341 3.6568 0.60431 2.0738-0.25662 2.0704-0.36672 0.25 7.9092-0.78636 3.575-1.4456 7.0625-1.4649 7.75-0.0642 2.2858 1.9982 1.2906 3.1088-1.5 0.64119-1.6111 1.2911-2.2191 1.5693-1.468 0.60862 1.6433-2.3609 6.218-4.0363 6.218-0.70232 0-1.7686-0.49169-2.3696-1.0926-0.79019-0.79019-1.6578-0.79019-3.1343 0-2.7252 1.4585-4.4021 1.377-6.732-0.3272zm8.4287-4.8225c2.0486-6.4793 2.3453-10.334 0.88844-11.543-3.2973-2.7365-7.7385 4.397-7.7527 12.452-0.01 5.5593 5.0301 4.8919 6.8642-0.90899zm84.571 4.8225c-2.6599-1.9456-2.514-9.6607 0.25327-13.387 2.7638-3.7218 6.5431-5.7206 8.8988-4.7066 1.0488 0.45147 2.6943 0.72341 3.6568 0.60431 2.0738-0.25662 2.0704-0.36672 0.25 7.9092-0.78636 3.575-1.4456 7.0625-1.4649 7.75-0.0642 2.2858 1.9982 1.2906 3.1088-1.5 0.64119-1.6111 1.2911-2.2191 1.5693-1.468 0.60862 1.6433-2.3609 6.218-4.0363 6.218-0.70232 0-1.7686-0.49169-2.3696-1.0926-0.79019-0.79019-1.6578-0.79019-3.1343 0-2.7252 1.4585-4.4021 1.377-6.732-0.3272zm8.4287-4.8225c2.0486-6.4793 2.3453-10.334 0.88844-11.543-3.2973-2.7365-7.7385 4.397-7.7527 12.452-0.01 5.5593 5.0301 4.8919 6.8642-0.90899zm84.571 4.8225c-2.6599-1.9456-2.514-9.6607 0.25327-13.387 2.7638-3.7218 6.5431-5.7206 8.8988-4.7066 1.0488 0.45147 2.6943 0.72341 3.6568 0.60431 2.0738-0.25662 2.0704-0.36672 0.25 7.9092-0.78636 3.575-1.4456 7.0625-1.4649 7.75-0.0642 2.2858 1.9982 1.2906 3.1088-1.5 0.64119-1.6111 1.2911-2.2191 1.5693-1.468 0.60862 1.6433-2.3609 6.218-4.0363 6.218-0.70232 0-1.7686-0.49169-2.3696-1.0926-0.79019-0.79019-1.6578-0.79019-3.1343 0-2.7252 1.4585-4.4021 1.377-6.732-0.3272zm8.4287-4.8225c2.0486-6.4793 2.3453-10.334 0.88844-11.543-3.2973-2.7365-7.7385 4.397-7.7527 12.452-0.01 5.5593 5.0301 4.8919 6.8642-0.90899z"/>
</svg>
